<?xml version="1.0" encoding="utf-8"?>
<!-- Generator: Adobe Illustrator 13.0.0, SVG Export Plug-In  -->
<!DOCTYPE svg PUBLIC "-//W3C//DTD SVG 1.1 Tiny//EN" "http://www.w3.org/Graphics/SVG/1.1/DTD/svg11-tiny.dtd" [
	<!ENTITY ns_flows "http://ns.adobe.com/Flows/1.0/">
]>
<svg version="1.1" baseProfile="tiny"
	 xmlns="http://www.w3.org/2000/svg" xmlns:xlink="http://www.w3.org/1999/xlink" xmlns:a="http://ns.adobe.com/AdobeSVGViewerExtensions/3.0/"
	 x="0px" y="0px" width="142px" height="663px" viewBox="-0.101 -0.103 142 663" xml:space="preserve">
<defs>
</defs>
<path fill="#FFFFFF" d="M80.365,171.051c3.631-0.622,6.061-4.283,9.246-4.203c-9.448,17.26-45.704,7.388-44.548-13.869
	c1.786,0.382,2.113-0.685,2.521-1.681c-0.929-1.067-1.618-2.375-3.783-1.681c-1.987-3.623-3.265-7.624-1.261-11.347
	c3.488,2.396,6.388,5.379,11.347,6.304c2.458-0.929,3.8-1.773,5.885-1.681c-0.29,0.34-0.656,1.151,0,1.261
	c-3.762,2.265-5.501,7.83-7.985,10.086c1.177,2.53-1.467,3.223-0.42,5.884c1.299-4.051,4.48-11.259,8.405-12.608
	c-1.618,3.039-1.262,5.997-3.362,7.985c0.185,0.374,0.37,0.752,0.841,0.84c1-2.084,2.645-3.521,4.203-5.043
	c2.749,1.622,8.056-0.139,10.086,3.782c2.912-2.836,10.502-4.127,13.868,0c0.357,3.438,1.56,5.241,2.102,7.565
	c-3.505-3.505-2.753-6.968-6.725-7.985c-2.95-0.757-6.211,2.95-10.086,2.941c-3.518-0.008-11.759,1.4-13.028,5.464
	c7.115-0.572,11.886-0.412,19.332,1.681c1.183-0.004-1-1.147,0.841-0.84c2.105-0.311-0.559,1.551,0.842,1.681
	c1.097-0.025,1.356-2.946,1.269-2.946c1.454-1,2.392,2.076,2.934,3.366c-6.193,5.115-13.89-1.689-22.693-0.42
	c-1.278,0.017-1.635-0.887-2.522-1.261c1.105,5.564,7.355,3.051,12.608,4.203C74.709,169.501,78.07,171.442,80.365,171.051z
	 M55.149,160.544c0.244-0.836,2.186-3.644,0.42-3.782C56.213,158.553,53.642,159.28,55.149,160.544z"/>
<path fill="#FFFFFF" d="M66.076,283.261c1.711-0.029,1.808,1.555,1.682,3.362c-1.567-0.193-2.063-0.177-3.782-0.841
	C64.434,284.699,65.038,283.761,66.076,283.261z"/>
<path fill="#FFFFFF" d="M74.902,286.203c-1.187,0.71-2.152-0.361-3.783,0.42c-0.437-1.189-0.437-1.753,0-2.942
	C73.876,283.026,73.33,285.673,74.902,286.203z"/>
<path fill="#FFFFFF" d="M81.626,43.711c0.076,0.917-0.345,1.336-1.261,1.261c-0.323-0.286-1.093-2.505,0.42-2.102
	c0.067,0.487-0.092,0.748-0.42,0.84C80.55,44.334,80.903,43.548,81.626,43.711z"/>
<path fill="#FFFFFF" d="M92.975,72.29c1.41,2.547,3.252,7.905-0.842,9.666c-1.35-0.609-1.925-2-4.202-1.681
	C85.627,75.517,87.146,71.239,92.975,72.29z M90.451,76.492c0.038,1.643,0.513,2.849,2.522,2.521c-0.048-1.046-0.786-1.303,0-2.101
	C91.485,76.774,91.94,75.757,90.451,76.492z"/>
<path fill="#FFFFFF" d="M94.654,273.175c-0.231,1.312-2.438,0.643-3.362,1.261c-0.185-1.445,0.164-2.354,0.42-3.362
	C93.881,270.586,93.915,272.233,94.654,273.175z"/>
<path fill="#FFFFFF" d="M79.105,31.944c1.29,0.912-0.13,2.639-0.42,3.362C77.597,34.592,79.5,33.352,79.105,31.944z"/>
<path fill="#FFFFFF" d="M86.249,69.768c-0.122,2.686-4.476,4.766-6.725,6.724c-0.438-1.665-2.08-2.123-2.102-4.203
	C80.298,71.382,83.564,70.865,86.249,69.768z"/>
<path fill="#FFFFFF" d="M20.688,114.736c0.692,4.753-3.005,6.384-5.043,10.507c-1.534,0.286-3.057,0.588-5.043,0.42
	c-3.063-5.459,5.884-4.631,5.043-10.506c-1.484-2.412-3.522-3.627-5.885-4.203c-0.566,1.004,2.674,1.794,3.362,2.942
	c0.689,0.899-1.072,2.042-0.42,4.203c-6.021,4.4-11.688-2.883-11.347-10.086c0.86-0.118,0.84-1.122,1.261-1.681
	C9.467,104.389,19.679,107.802,20.688,114.736z"/>
<path fill="#FFFFFF" d="M67.337,271.074c2.53,4.606-1.983,10.578-4.623,11.347c-1.677-2.724-5.815-5.998-3.781-10.927
	C61.735,270.561,64.051,270.817,67.337,271.074z M62.714,277.798c2.731-0.118,2.144-3.413,0.84-4.623c-0.42,0-0.84,0-1.261,0
	C61.392,274.827,62.378,276.222,62.714,277.798z"/>
<path fill="#FFFFFF" d="M44.644,265.19c3.277-5.4,8.645-3.837,14.709-4.203c-2.08,1.984-2.384,5.741-4.203,7.985
	c-1.828-0.008-3.782-0.139-5.043,0.42c-0.046-1.072-0.77-1.471-1.262-2.102c-0.017-1.277,0.888-1.635,1.262-2.521
	c-2.404-0.706-2.354,3.879-4.623,4.623c1.051,0.63,1.891,1.471,2.521,2.521c2.14-2.442,5.001-0.945,7.985-1.261
	c1.521,5.413-1.757,9.372-4.203,12.188c-2.181-1.853-3.442-5.518-3.783-7.985c-0.601,2.005-2.571,5.295-3.781,7.985
	c-1.304,0.042-2.01-0.513-2.942-0.84c-1.139-4.119,0.962-5.792,0-9.666c1.206-0.198,1.126-1.673,2.102-2.102
	c-0.042-1.076-1.567-0.676-2.102-1.261c-0.412-1.954,0.546-2.538,0.841-3.782C42.962,265.19,43.802,265.19,44.644,265.19z
	 M52.208,276.958c1.526-0.013,1.845-1.236,1.682-2.942c-1.014,0.172-0.912-0.769-2.102-0.42
	C51.456,275.234,51.355,275.776,52.208,276.958z M45.904,276.117c0.088-1.206-0.105-2.135-0.84-2.521
	C43.832,273.944,43.808,276.722,45.904,276.117z M45.064,268.132c-0.282,0-0.56,0-0.841,0c-0.551,0.613-0.37,2.757,0.841,1.681
	C44.602,269.435,44.773,268.872,45.064,268.132z"/>
<path d="M80.785,111.374c0,0.702,0,1.399,0,2.101c-0.374-0.256-0.752-0.508-0.84,0C78.705,112.845,79.273,111.374,80.785,111.374z"
	/>
<path fill="#FFFFFF" d="M96.335,325.708c-0.688,0.849-1.402,1.677-2.94,1.681c-1.767-3.984-4.942-7.977-10.928-7.564
	c-1.861,0.126-3.123,1.122-5.884,0c-0.597-0.941-0.312-2.77-1.681-2.942c0.555-2.597,1.87-3.425,1.261-6.304
	c-1.056,0.626-1.122,2.24-2.521,2.521c1.291,2.56-2.164,5.342,0.841,8.405c1.854,0.53,3.661,1.101,5.464,1.681
	c0.609-1.492,3.593-0.609,5.463-0.84c3.173,2.681,7.342,7.535,6.725,11.766c-5.483-1.516-5.273-10.972-13.447-8.404
	c-2.543-1.66-4.072-4.333-7.985-4.623c1.198-5.249,0.702-7.889,1.261-13.028c2.014,0.958,8.1,2.316,7.146-2.521
	c0.112-0.866,1.566-0.395,1.681-1.261c2.295,1.769,5.745,2.378,7.565,4.623c-0.273,1.828-1.038,3.165-1.262,5.043
	C92.738,315.172,95.562,320.942,96.335,325.708z"/>
<path fill="#FFFFFF" d="M75.742,39.089c0.983,4.77,3.299,10.939,2.521,14.709c-1.315-0.084-1.72-1.084-2.521-1.681
	C77.234,47.061,73.981,43.615,75.742,39.089z"/>
<path d="M79.953,162.642c0.089,0-0.172,2.921-1.269,2.946c-1.399-0.13,1.265-1.992-0.842-1.681c-1.841-0.307,0.342,0.836-0.841,0.84
	c-7.446-2.093-12.217-2.252-19.332-1.681c1.271-4.064,9.512-5.472,13.028-5.464c3.875,0.009,7.136-3.698,10.086-2.941
	c3.972,1.017,3.22,4.48,6.725,7.985c-0.542-2.324-1.743-4.127-2.102-7.565c-3.366-4.127-10.956-2.836-13.868,0
	c-2.03-3.921-7.338-2.16-10.086-3.782c-1.559,1.521-3.203,2.958-4.203,5.043c-0.471-0.088-0.656-0.466-0.841-0.84
	c2.102-1.988,1.744-4.946,3.362-7.985c-3.926,1.349-7.106,8.557-8.405,12.608c-1.046-2.661,1.597-3.354,0.42-5.884
	c2.483-2.257,4.224-7.821,7.985-10.086c-0.656-0.109-0.29-0.92,0-1.261c-2.084-0.092-3.426,0.752-5.885,1.681
	c-4.959-0.925-7.858-3.909-11.347-6.304c-2.004,3.724-0.727,7.725,1.261,11.347c2.165-0.693,2.854,0.614,3.783,1.681
	c-0.408,0.996-0.734,2.063-2.521,1.681c-1.156,21.257,35.1,31.129,44.548,13.869c-3.187-0.08-5.615,3.581-9.246,4.203
	c-2.295,0.391-5.656-1.551-10.086-2.521c-5.253-1.152-11.503,1.361-12.608-4.203c0.888,0.374,1.244,1.277,2.522,1.261
	c8.804-1.27,16.5,5.535,22.693,0.42C82.345,164.718,81.407,161.642,79.953,162.642z M141.305,92.462
	c0.116,6.812-0.935,9.628-3.362,12.608c5.979,5.661,1.173,16.029-5.043,18.071c0.765,3.988-2.371,4.077-3.362,6.304
	c1.651,5.009-1.644,8.346-3.362,11.347c0.752,9.998-6.282,12.208-7.984,19.752c-0.458,2.282,1.001,2.644,1.261,4.203
	c-2.252,1.391-3.786,3.501-3.361,7.565c-7.544,2.605-5.53,15.344-10.507,19.332c-7.006-0.84-10.69,1.635-12.188,6.304
	c-2.315,0.488-5.488,0.114-7.564,0.841c1.878,3.026,6.725,3.084,6.304,8.405c-1.365,1.017-3.85,0.912-5.884,1.261
	c0.038,1.996,2.753,2.244,2.941,4.203c0.169,1.773-2.799,3.745-2.941,5.884c-0.248,3.689,4.599,5.867,6.305,9.246
	c4.151,8.212,1.602,18.492-3.362,23.114c2.193,2.417,0.854,5.779,1.682,8.405c1.186,3.757,5.492,4.636,7.564,7.145
	c-0.277,5.951,3.682,9.67,1.681,15.97c0.131,2.093-2.874,1.05-2.94,2.941c1.879,2.042,6.354,1.492,7.984,3.783
	c-0.055,3.694,3.266,4.018,3.782,7.145c-3.295,1.748-7.978,2.109-12.608,2.521c0.399,4.728,3.169,10.893,0,14.289
	c3.072,4.426,7.222,7.779,6.306,13.869c-0.421,2.799-4.657,4.375-3.783,7.985c0.65,2.698,10.011,6.552,12.607,7.985
	c5.187,2.861,8.666,4.804,13.028,7.145c-9.595,61.762-20.104,128.73-30.68,194.58c-5.253,32.705-10.271,63.562-18.071,94.98
	c-1.038,4.178-2.08,8.105-3.362,12.188c-1.139,3.623-1.364,8.031-4.201,10.928c-11.499-19.189-13.818-45.91-18.071-72.705
	c-11.388-71.691-21.702-144.822-32.784-218.119c-0.883-5.832-3.762-16.34-2.942-19.752c0.766-3.186,9.352-7.178,12.608-9.246
	c5.379-3.416,9.897-6.025,13.448-8.404c-1.668-5.812-7.414-10.7-3.782-18.071c2.219-1.143,3.5-3.223,5.883-4.203
	c-1.479-2.631-1.798-8.313-0.42-11.347c-2.917-2.967-9.2-2.568-11.768-5.884c0.391-2.971,2.337-4.387,2.521-7.564
	c2.564-0.798,6.104-0.622,8.405-1.681c0.778-2.673-2.03-3.614-2.521-5.884c-0.891-4.114,1.479-8.624,0.42-13.028
	c2.626-2.698,6.031-4.615,8.405-7.565c-0.925-2.58,1.06-5.665,0.84-7.985c-0.345-3.644-4.308-6.661-5.043-10.506
	c-1.883-9.834,3.782-16.101,8.405-23.115c-1.513-2.773-3.669-8.225,0.42-9.666c-2.593-0.067-4.715-0.609-6.304-1.681
	c-0.56-5.459,5.888-3.917,7.145-7.564c-0.856-0.962-3.487-0.151-5.043-0.42c-2.177-1.046-2.95-3.497-5.043-4.623
	c-4.56-0.26-6.871-0.21-8.826-1.681c-2.983-2.244-1.891-6.119-2.94-10.086c-0.824-3.106-4.001-5.329-3.783-8.405
	c-5.232-4.144-4.972-13.083-9.246-17.231c-0.05-1.21,0.231-2.752-0.42-3.362c-3.816-5.707-4.291-14.76-7.985-20.593
	c0-1.542,0-3.081,0-4.623c-1.856-5.144-5.043-8.968-8.825-12.188c-0.602-3.085-2.136-9.637,0.841-11.347
	c-1.33-5.99-3.536-18.838,3.364-20.174c-0.421-3.081,0.814-4.509,1.681-6.304c4.815-1.963,6.708,4.022,10.507,0.84
	c1.693,0.408,2.572,1.631,3.782,2.522c4.282-0.971,3.324-5.598,4.623-7.145c0.866-1.034,3.273-1.025,4.203-2.102
	c1.341-1.555,0.533-4.013,2.102-5.043c2.689-1.765,3.904,0.782,7.985,0.84c3.161,0.046,4.547-3.034,7.984-4.203
	c3.438-1.164,6.104,0.824,8.826-1.681c-0.303-2.219-3.35-1.693-3.782-3.782c0.197-2.509,0.445-4.808,0.841-7.145
	c0.332-1.962,0.294-4.442,0.841-6.304c0.353-1.198,1.807-2.463,2.101-3.782c0.992-4.442-1.03-9.065,2.942-10.927
	c-0.644-6.077,2.668-9.683,3.361-14.289c0.177-1.185-0.281-2.379,0-3.362c0.295-1.025,1.412-1.866,1.682-2.942
	c0.269-1.063-0.382-2.282,0-3.362c1.009-2.854,3.857-5.829,5.464-5.884c4.904-0.168,4.173,9.515,5.463,13.028
	c0.645,1.748,2.346,2.673,2.942,3.782c-0.056,4.837,2.328,9.271,3.36,13.869c0.366,1.622-0.097,3.425,0.421,5.043
	c0.308,0.967,1.483,1.921,1.682,2.942c0.276,1.438-0.346,3.135,0,4.623c0.482,2.088,2.479,3.795,2.941,5.884
	c0.678,3.051-0.327,6.056,1.262,8.825c0.406,2.509-2.572,1.631-2.521,3.782c1.605,1.979,3.467,0.778,5.463,1.261
	c6.106,1.483,9.928,5.871,18.071,4.203c1.403,1.706,2.959,3.934,0.841,5.883c2.345,1.58,5.497,2.345,4.623,7.145
	c5.127,4.119,10.119-2.135,15.129-1.681C136.812,79.215,136.34,88.697,141.305,92.462z M129.536,105.49
	c5.052-0.752,9.086-6.804,7.146-11.768c-2.03,3.156-4.329,6.035-7.146,8.405C130.817,102.906,129.053,104.125,129.536,105.49z
	 M134.999,113.055c0.954,0.958,1.526-0.605,1.683-1.681c-3.258-5.371-9.226,0.281-13.448,1.261
	c-3.833,6.321-0.147,9.771,3.36,14.289c0.072-0.492,0.664-0.458,1.262-0.42c0.211-5.073-5.08-9.321,0-13.448
	c1.383-0.58,2.673-1.249,4.203-1.681c0.374,1.029,2.345,0.454,2.102,2.101c-3.53-0.168-4.488,2.236-6.725,3.362
	c0.173,1.929,1.27,2.933,2.102,4.203C132.94,120.229,136.85,116.43,134.999,113.055z M129.956,96.245
	c2.979-3.03,4.127-9.019,2.521-14.289c-5.362-0.702-0.403,8.943-4.623,11.767C128.314,94.807,128.918,95.744,129.956,96.245z
	 M124.493,89.94c1.197-1.647,2.257-4.077,1.261-6.724c-2.123,0.118-3.392,1.088-5.043,1.681c0,1.261,0,2.521,0,3.782
	C121.715,89.356,122.69,90.063,124.493,89.94z M125.333,104.23c-0.062-4.379-0.059-8.12-2.94-11.347
	c-2.122,0.887-5.362-0.319-6.726,2.942c1.202,2.165,0.351,4.509-0.42,6.304C118.075,104.381,121.399,106.306,125.333,104.23z
	 M120.711,138.691c1.823-2.228,4.767-5.144,4.202-8.405c-3.362-0.139-7.502,2.202-10.927,3.362c0.323,1.584-0.513,2.009-0.42,3.362
	C115.827,136.581,117.85,139.725,120.711,138.691z M120.29,111.374c1.778-0.744,3.594-1.45,3.782-3.783
	c-1.958-0.706-3.992-1.328-5.884-2.101c-1.476,1.95-4.244,4.64-2.941,7.985c-0.576,0.824-2.534,0.269-2.521,1.681
	c3.483,2.605,0.074,9.918,3.361,13.028c1.888-0.076,3.047-0.875,4.202-1.681C117.445,122.359,117.396,115.236,120.29,111.374z
	 M113.566,148.777c2.719,0.084,8.683,0.471,7.563-5.463C117.416,143.944,115.512,146.382,113.566,148.777z M116.088,156.342
	c0.798-1.021,0.126-3.518,0.84-4.623c-2.336,0.887-6.828-0.383-7.563,2.101C110.99,155.274,113.188,156.161,116.088,156.342z
	 M101.799,159.284c0.412-7.552,6.909-19.672,14.289-17.651c-0.79-2.614-4.712-1.513-6.725-0.84
	c-0.954,2.967-4.043,3.803-4.202,7.564c-2.82,1.261-5.812,10.259-3.782,13.869c-1.014,1.744-0.295,2.686-0.841,4.623
	C103.282,165.772,101.648,162.087,101.799,159.284z M116.508,84.057c-0.551-0.092-1.677-1.265-2.94-1.261
	c-3.661,0.009-15.176,8.309-12.608,9.666C106.451,91.227,116.018,92.37,116.508,84.057z M111.885,166.428
	c5.148-3.24,1.988-9.821-3.361-10.506c-2.441,4.505-5.16,11.889,1.261,14.709C111.494,170.236,112.255,168.899,111.885,166.428z
	 M110.624,79.854c-0.093-1.353,0.744-1.777,0.421-3.362c-6.938-0.336-9.372,7.426-13.027,11.767
	C103.022,86.259,105.959,82.195,110.624,79.854z M120.29,350.083c-7.909-2.749-15.012-8.51-23.114-9.666c0,0.42,0,0.84,0,1.262
	c4.198,3.647,11.208,4.483,15.131,8.404c-13.789,94.916-21.174,196.24-39.506,286.619c2.357-1.93,1.945-5.393,2.521-7.984
	c9.615-43.268,15.579-90.193,22.694-136.166C105.072,446.966,112.759,394.253,120.29,350.083z M108.104,115.577
	c-0.836-0.702-0.533,0.038-1.682,0c0.155,1.828-0.715,2.324,0,2.942C107.068,117.627,107.632,116.644,108.104,115.577z
	 M103.48,179.036c3.346,0.378,5.683-4.173,3.781-6.304C104.526,173.262,102.693,176.313,103.48,179.036z M107.262,69.768
	c-0.536-0.021-0.578-0.538-1.261-0.42c-1.051,0.492-1.618,1.467-3.36,1.261c-1.282,3.144-9.39,11.339-5.465,13.869
	C100.757,79.955,106.291,75.538,107.262,69.768z M102.641,105.49c1.07-0.046,1.471-0.769,2.101-1.261
	c-0.836-0.004-0.533-1.147-1.681-0.841C103.194,104.364,102.992,105.003,102.641,105.49z M104.32,107.591
	c-1.189,0.349-1.089-0.592-2.103-0.42c1.408,1.811-1.73,1.425-2.521,0.84c-0.865,0.58,0.963,2-1.261,1.681
	c1.644-2.421,2.808-5.32,3.781-8.405c-2.874-0.16-1.101-4.047-0.42-5.463c-0.963-0.857-1.748-1.891-3.361-2.102
	c-0.182,0.799-0.903,1.055-0.842,2.102c0.114,0.866,1.862,0.101,1.683,1.261c-0.396,0.874-0.071,2.034-1.261,2.942
	c-2.034-0.353-2.973,0.391-4.203,0.84c2.892-3.539,3.076-5.249,2.941-10.927c-3.323-1.58-3.674-6.136-8.404-6.304
	c-1.312,3.03-0.361,8.325-2.942,10.086c-3.724-0.252-3.921,0.715-5.884-1.681c0.971-2.623-1.235-3.904-3.782-4.203
	c-0.588,1.841,0.837,4.951,1.682,6.724c-0.896,3.585-1.365,16.092-8.404,13.448c-0.063-2.441,2.874-1.887,3.36-3.782
	c-1.437-1.32-0.05-2.934-0.84-4.623c5.913-0.639,4.315-8.964,0.42-10.506c-2.757-1.093-4.182,1.349-6.724,0.84
	c0.958,1.66-0.504,2.286-1.261,3.362c0.369-2.291,0.979-4.346,1.681-6.304c2.73,0.151,3.799-1.332,7.563-0.42
	c0.941-3.972,2.198-7.863-0.42-10.507c-7.636-1.349-9.053,4.682-7.564,10.927c-2.614,1.168-2.682,4.884-5.043,6.304
	c-2.14,0.181-3.736-0.185-4.623-1.261c-0.189-2.341,0.622-2.749,0.84-3.783c0.37,0.307,1.631,0.807,2.942,1.261
	c0.365-0.613,0.63-1.332,1.681-1.261c0.214-1.895-0.034-3.328-1.261-3.782c-0.102-2.202,2.202-2,3.781-2.521
	c0.337-6.821-7.358-3.824-8.824-2.102c0.356-2.265,0.73-4.261,1.261-5.883c-1.765-1.645-2.808-2.53-5.043-2.942
	c-0.714-4.77,7.111-5.354,9.246-3.362c0.697-1.265,3.123-0.798,3.361-2.521c0.782-0.542-0.966-2.089-0.42-3.782
	c-1.345-0.748-2.123-0.815-3.782-0.42c-0.277,1.538,0.907,1.614,0.841,2.942c-2.11,1.525-8.464,0.214-11.769,1.681
	c-2.159,2.291,0.308,6.434,2.521,5.463c-0.067,1.891-2.231,1.689-2.521,3.362c0.328,0.933,1.396,1.126,1.262,2.522
	c-0.857-0.845-1.118-0.109-1.682,0.42c1.102,2.488,0.21,4.581,0.841,7.145c3.636,0.832,3.488-2.114,4.203-4.203
	c3.021,0.063,0.193,5.215,2.521,6.724c-1.034-0.366-0.941-1.862-2.521-1.681c-2.261,1.349-4.337,0.365-6.304,2.101
	c0.404,2.475-1.651,3.577-2.942,2.101c-2.009-7.8-7.56-12.049-14.709-14.709c-4.824,4.627,1.304,4.867,5.043,6.724
	c3.938,1.958,8.939,7.536,9.246,10.927c-1.193,0.206-0.604,2.198-2.521,1.681c-0.518-7.451-8.397-10.843-15.55-13.028
	c-3.258,2.417-0.605,7.497,1.261,9.666c4.367,1.097,10.54,0.386,12.608,3.782c-2.922,0.803-5.199-0.769-7.565,0.42
	c-4.034,2.03-2.072,8.136-2.521,13.028c-0.701,7.632,1.66,17.147,8.405,18.912c0.109-4.455-0.622-6.321-0.42-11.347
	c4.589-1.118,13.054-0.769,12.188,1.261c-1.997-1.42-7.229-0.156-10.086,0.42c2.139,6.926,10.09,3.215,14.709,7.144
	c3.551,4.396,8.648,13.465,15.13,9.666c0.2-1.605-0.118-2.681-0.842-3.362c0.56-1.03,1.271,0.756,1.682-0.42
	c-0.529-1.29-3.156-0.487-2.941-2.521c1.189-0.349,1.089,0.593,2.103,0.42c-0.304-0.958-0.374-2.148-0.841-2.942
	c1.289-0.672,3.215-0.71,3.781-2.102c0.576,1.723-1.013,3.43,0,4.203c2.563-0.731,2.61-5.014,2.521-7.145
	c3.304,2.089,0.803,6.825-0.42,9.246c3.959,1.828,3.682-1.58,5.884-1.261c-1.724,3.421-5.46,3.278-8.405,3.782
	c-0.29,1.689,0.403,2.399,0.42,3.782c10.97-0.445,13.822-13.049,24.375-14.709c1.257-0.198,3.74,1.399,5.044-1.261
	c-7.393-1.463-22.324-3.291-29.839-0.42c-6.236-3.312-14.729-1.773-21.434-2.521c4.689-3.186,12.911,0.727,17.65-2.521
	c0.383,2.82,7.295,2.689,7.984,0.42c2.938,1.034,8.826,2.992,11.348-0.84c0.135,2.156,2.874,2.555,4.202,1.261
	c-0.223-0.916-1.017-2.719,0.42-2.942c1.052-0.071,1.315,0.647,1.683,1.261c-0.14,1.488-1.156,1.034-0.42,2.521
	c3.391,0.311,5.047-1.113,7.144-2.101c0,0.702,0,1.399,0,2.101c0.56,0,1.122,0,1.682,0c0.416-0.731,1.357-3.089,0.842-3.362
	c-0.174,0.529-0.543,0.857-1.262,0.84c-1.075-1.126,0.252-2.215,0-3.782c1.277-0.626,1.636,0.139,2.521-0.42
	C103.866,108.542,103.992,107.965,104.32,107.591z M97.176,189.543c3.174,0.925,7.432-3.387,6.726-6.724
	c-1.631,0.929-6.432,1.194-7.985-1.261C94.802,184.647,94.028,188.626,97.176,189.543z M104.74,99.187
	c-1.206-2.089-2.555,0.433-2.941,1.681C103.03,100.556,103.866,99.85,104.74,99.187z M100.538,179.457
	c-1.744-4.417,2.819-6.493,2.521-9.246c-5.072,0.849-9.956,8.027-3.782,10.927C99.697,180.579,99.972,179.868,100.538,179.457z
	 M100.117,128.185c1.026-1.152,0.151-2.946-0.42-3.783c-3.025-0.227-5.451,0.151-6.724,1.681
	C96.189,125.949,97.075,128.147,100.117,128.185z M32.876,295.028c23.253,1.53,48.054,0.341,65.981,0.42
	c-2.576-3.992-7.552-2.143-11.348-2.101c-8.716,0.097-18.479-1.378-26.477-2.102c10.044-1.227,24.169-1.151,33.621-1.261
	c-6.291-4.862-18.239-0.58-24.375-3.362c-0.879,2.118-4.812-0.588-7.985,0c-0.15-2.068-0.387-3.404-1.261-3.783
	c-1.521,1.139-2.219,3.106-3.782,4.203c0.618-2.021-1.046-1.752-0.841-3.362c0.828-1.273,2.253-1.95,2.942-3.362
	c-0.702-0.559-1.408-1.114-2.942-0.84c0.37,3.139-2.807,4.131-1.681,6.724c0.836,1.37,0.962-1.488,1.681,0
	c-0.252,2.333-5.493,0.529-6.304,0c-3.459,1.79-8.646,1.635-13.869,2.521C35.932,291.641,33.582,292.511,32.876,295.028z
	 M95.915,70.188c0.252,1.034,1.729,3.005,2.941,1.681C97.802,71.382,97.449,70.197,95.915,70.188z M91.712,152.139
	c3.69-1.773,6.848-4.081,7.146-9.246c-3.992-1.328-9.312,1.156-13.868,0.84C87.951,145.814,89.485,149.324,91.712,152.139z
	 M93.814,128.605c1.276,0.971,3.441,4.678,6.304,5.463C98.411,132.076,96.196,128.538,93.814,128.605z M93.395,327.389
	c1.538-0.004,2.253-0.832,2.94-1.681c-0.772-4.766-3.597-10.536-9.245-11.767c0.224-1.878,0.987-3.215,1.262-5.043
	c-1.82-2.245-5.271-2.854-7.565-4.623c-0.113,0.866-1.567,0.395-1.681,1.261c0.954,4.837-5.132,3.48-7.146,2.521
	c-0.559,5.14-0.062,7.779-1.261,13.028c3.913,0.29,5.442,2.963,7.985,4.623c8.174-2.567,7.964,6.889,13.447,8.404
	c0.617-4.231-3.552-9.085-6.725-11.766c-1.87,0.231-4.854-0.651-5.463,0.84c-1.803-0.58-3.61-1.151-5.464-1.681
	c-3.005-3.063,0.45-5.846-0.841-8.405c1.399-0.281,1.467-1.895,2.521-2.521c0.609,2.879-0.706,3.707-1.261,6.304
	c1.369,0.172,1.084,2,1.681,2.942c2.761,1.122,4.021,0.126,5.884,0C88.451,319.412,91.628,323.405,93.395,327.389z M91.292,274.436
	c0.925-0.618,3.131,0.051,3.362-1.261c-0.739-0.941-0.773-2.589-2.942-2.101C91.456,272.082,91.107,272.99,91.292,274.436z
	 M91.712,139.531c0.22-2.441,2.215-3.11,2.942-5.043c-1.664-6.068-12.318-0.45-12.188,3.782c0.319-0.824,1.342,1.139,2.941,0.42
	c0.396-1.563,0.748-3.173,2.102-3.782c1.95-0.13,2.904,0.735,2.941,2.521c0.206,1.328-2.084,0.155-1.681,1.681
	C89.606,140.124,90.771,138.414,91.712,139.531z M92.975,279.059c1.406-1.004,0.134-2.458-0.842-3.362c0.231,0,0.476-0.34,0-0.42
	C91.586,276.033,92.624,277.898,92.975,279.059z M92.133,81.956c4.094-1.761,2.252-7.119,0.842-9.666
	c-5.829-1.051-7.348,3.228-5.044,7.985C90.208,79.955,90.783,81.346,92.133,81.956z M90.451,165.588
	c1.627,1.542,3.942-2.753,2.522-2.942C92.591,164.083,91.069,164.386,90.451,165.588z M90.451,268.132
	c3.136-0.395,1.068-4.388-0.84-4.623C90.095,265.505,89.401,266.425,90.451,268.132z M82.887,191.644
	c2.687,0.677,4.035,2.689,7.564,2.521c-4.156-5.484-7.077-13.095-14.709-13.869c-3.102,0.374-4.762,4.984-1.261,6.304
	c1.735-0.786,1.366-3.678,4.623-2.942c0.15,2.731,2.945,4.787,2.521,6.724c-2.282-1.227-3.375,1.042-4.623,2.101
	c-5.182-3.921-8.014-10.195-12.188-15.129c-4.547-1.387-8.09,3.841-6.305,7.565c2.105-0.135,1.773-2.711,4.203-2.521
	c4.645,4.74,7.417,11.351,13.449,14.709C79.739,196.62,80.832,193.653,82.887,191.644z M87.931,277.377
	c0.177-2.114,1.677-2.509,0.841-4.623c-1.361-1.442-4.187-1.417-6.726-1.681c-2.685,3.563,0.884,8.321,3.362,10.506
	c0.361-1.319,1.589-1.773,1.682-3.362c-2.865,0.882-3.258-4.165-1.682-5.043C87.931,273.768,87.389,275.377,87.931,277.377z
	 M88.352,339.576c0.874-0.248,1.433-0.808,1.681-1.681c-4.215-0.547-3.782-9.613-8.405-10.507c-1.845-0.357-7.657,0.668-5.884,4.623
	c1.03,0.819,2.215-0.895,3.782-0.841C83.753,332.688,85.561,336.622,88.352,339.576z M83.309,247.959
	c3.084-5.589,5.693-9.094,4.622-18.071c-2.056-3.542-4.122-6.682-6.725-10.506c-1.602,0.197-2.623-0.177-2.941-1.261
	c-0.135-1.396-0.062-2.584,0.841-2.942c-0.857-0.899-1.664,0.118-2.521,0.42c0.021,1.841,0.294,3.938-1.261,4.203
	c-0.366-1.034-1.862-0.941-1.682-2.522c0.075-1.185,1.997-0.525,1.682-2.101c-0.534-1.706-0.777-3.707-2.102-4.623
	c-2.399-0.441-2.458,1.463-4.202,1.681c-0.534-1.429-2.552-1.37-4.623-1.261c-2.202,2.202,1.407,6.548-1.262,7.985
	c-1.159-2.794-0.841-5.762-0.42-7.985c-2.562-2.249-4.903,0.517-5.043,2.084c0-0.979-0.723-1.227-0.42-2.505
	c-8.606-1.756-1.782,5.308-2.521,9.246c-10.264,6.615-10.271,18.554-5.463,28.157c2.799,1.681,6.388,2.576,10.927,2.522
	c0.066-0.496-0.072-1.194,0.42-1.261c1.37,2.551,7.779,0.067,9.246,2.522C72.586,250.136,80.248,249.085,83.309,247.959z
	 M77.424,68.927c5.753-0.513,8.989-1.912,13.448-0.84c-1.479-6.136-11.348,0.382-13.869-5.043c-0.28,0-0.559,0-0.84,0
	C76.139,65.452,76.562,67.406,77.424,68.927z M87.09,183.239c0-0.559,0-1.122,0-1.681C85.473,181.226,85.473,183.571,87.09,183.239z
	 M86.669,268.552c1.707-2.308-0.276-4.745-1.261-6.725c-1.647-0.21-4.484-0.878-5.463-0.42
	C79.655,265.438,81.92,268.414,86.669,268.552z M74.902,360.169c3.005-2.018,12.312-11.096,10.927-18.07
	c-0.471-2.359-5.876-8.591-8.826-6.305C81.496,344.33,71.956,353.392,74.902,360.169z M82.887,254.263
	c0.018,1.265,2.984,1.219,2.521-0.42C84.992,252.817,82.85,252.712,82.887,254.263z M84.988,206.353
	c0.387-2.362-2.795-7.283-4.623-3.362c1.319,1.891,3.669,1.555,3.005,3.602c-0.033,0.05-0.055,0.109-0.062,0.181
	c0.023-0.063,0.046-0.122,0.062-0.181C83.598,206.202,84.399,206.383,84.988,206.353z M82.467,145.835
	c0.08,1.181,0.731,1.79,2.103,1.681C84.425,146.398,83.467,146.096,82.467,145.835z M85.408,84.057
	c-1.739-0.916-1.029-2.567,0-3.782c-1.475-3.837-4.211-2.623-7.564-2.521c-1.042,3.165-1.163,6.266-0.42,9.246
	c4.156-0.937,1.224,3.493,4.622,4.203c-0.079-2.038,2.455-1.471,2.522-3.362C82.312,86.465,85.136,85.423,85.408,84.057z
	 M79.524,76.492c2.249-1.958,6.603-4.039,6.725-6.724c-2.686,1.097-5.951,1.614-8.825,2.521
	C77.444,74.37,79.088,74.828,79.524,76.492z M80.365,44.973c0.916,0.075,1.337-0.345,1.261-1.261c-0.723-0.164-1.076,0.622-1.261,0
	c0.328-0.092,0.487-0.353,0.42-0.84C79.273,42.468,80.042,44.687,80.365,44.973z M81.206,161.805c0.92-0.874-0.37-1.357,0.42-2.101
	c-2.102,0.42-2.055-1.307-3.782-1.261c0.126,1.807-2.479,0.882-3.361,1.681c-0.033,0.731,0.093,1.307,0.421,1.681
	c2.08-1.034,3.361-0.819,5.043-1.681C80.121,160.927,80.098,161.932,81.206,161.805z M80.785,282.421
	c-0.062-1.047,0.66-1.303,0.841-2.102c-1.505-1.458-4.018,0.559-2.521,2.102C79.663,282.421,80.228,282.421,80.785,282.421z
	 M80.365,257.625c0.445-1.752,0.109-1.853,0-3.782c-1.492-0.878-3.66-0.912-4.623-1.261c-0.5,1.857-1.458,4.379,0,5.884
	C77.701,258.605,79.06,258.138,80.365,257.625z M79.945,210.976c-1.122,0-2.24,0-3.362,0c0.117,1.984,2.126,2.076,2.941,3.362
	C79.856,212.54,79.462,212.624,79.945,210.976z M60.613,58.001c7.01-1.45,15.814,0.496,23.535-0.42
	c-1.655-1.903-5.973-1.651-8.825-1.681c-5.409-0.059-10.683,0.563-13.869,0c-0.244-0.878-1.589,0.605-2.521,0.42
	c-1.59,0.715-3.791-1.374-3.783,0.42C56.222,59.303,59.029,55.853,60.613,58.001z M78.686,35.307c0.29-0.723,1.71-2.45,0.42-3.362
	C79.5,33.352,77.597,34.592,78.686,35.307z M78.265,53.798c0.776-3.77-1.538-9.939-2.521-14.709c-1.761,4.526,1.492,7.972,0,13.028
	C76.545,52.714,76.948,53.714,78.265,53.798z M78.265,268.132c0.177-3.257-0.857-5.304-2.102-7.145
	c-1.833,0.097-3.979-1.072-5.044-0.42c-1.979,0.79-1.345,5.594-0.84,7.565C73.314,268.145,75.979,268.166,78.265,268.132z
	 M77.003,206.353c3.543,0.038,1.324-3.324,0.841-5.043c-3.799-0.698-6.132-1.328-8.824,0.42c-1.304-2.77-5.875-0.908-9.246-0.841
	c-3.799,0.076-6.683-0.101-8.405,2.521c-0.798-0.181-1.055-0.903-2.101-0.84c-0.804,0.735-1.51,1.572-1.682,2.942
	c3.24,0.029,5.867,1.059,8.825,0.84c0.698-1.542,1.458-3.026,2.522-4.203c-0.412,1.665-0.584,3.051,0.42,4.203
	c3.413-0.218,4.488-0.092,7.564,0.42c1.693-0.689,0.626-4.135,2.521-4.623c0.15,1.812,0.332,3.593,1.261,4.623
	c2.231-0.147,5.145,0.378,5.884-1.261c-1.971,0.067-2.392,0.088-3.361,0.42c0.307-1.147-0.837-0.845-0.842-1.681
	c1.631-0.996,3.946,0.382,5.464,0.84C77.743,205.693,77.15,205.803,77.003,206.353z M75.322,282.001
	c5.119-6.283,5.152-15.125-5.043-10.507C68.754,277.054,71.783,281.74,75.322,282.001z M77.844,147.937
	c-1.312-1.496-4.627-4.614-5.043-8.405c-4.151-2.576-5.53,1.812-6.304,5.043c-2.581,0.55-5.795,3.333-3.782,5.884
	c1.82,0.025,5.463,0.067,8.826,1.261C72.937,149.752,76.654,150.109,77.844,147.937z M74.481,73.55
	c1.799-9.368-12.974-6.119-8.825,0.84C69.615,73.357,71.363,74.664,74.481,73.55z M71.119,286.624
	c1.631-0.782,2.598,0.29,3.783-0.42c-1.572-0.53-1.026-3.177-3.783-2.521C70.684,284.871,70.684,285.434,71.119,286.624z
	 M73.222,65.145c0.602-6.279-7.604-4.325-7.146,0.42C69.119,66.238,70.817,65.855,73.222,65.145z M72.801,54.639
	c0.354-3.934,0.799-6.459-0.841-10.507c-0.626-0.634-2.396-0.126-2.102-1.681c1.228-0.454,2.483-0.878,2.941-2.101
	c-0.341-1.963-0.521-5.682-2.941-6.724c0.673-0.727,1.572-1.231,2.521-1.681c0.131-2.652,0.021-5.064-1.261-6.304
	c-2.622-0.101-2.017,3.026-3.782,3.783c0.508-0.13,1.45,1.214,0.42,1.261c0.021-0.786-0.323-0.891-0.841-0.42
	c0.042-3.202,0.018-3.883,1.261-5.884c7.6,1.946,1-5.749,2.941-8.825c-1.349-4.06,1.866-8.573-1.261-12.608
	C69.21,3.7,69.159,5.053,67.335,4.629c0.332,1.87-0.286,2.794-0.841,3.782c0.845,0.416,1.702,0.819,2.522,1.261
	c-1.061,4.039,0.269,6.766-1.682,9.246c0.735,0.383,2.098,0.143,2.521,0.841c-1.551,0.647-0.445,1.517-1.682,2.101
	c-0.752-0.508-2.445-0.076-2.941-0.84c1.353-0.845,0.101-1.375,0.84-2.521c-1.231,0.109-1.29-0.95-2.521-0.841
	c0.312,2.833-0.479,4.564-2.101,5.463c1.319-0.197,1.109,1.131,2.101,1.261c1.396-0.286,1.32-2.042,2.521-2.521
	c-1.025,2.476-0.878,6.127-2.521,7.985c-0.486-2.084,0.542-4.471-2.521-4.623c-0.244,4.182,1.109,5.657,0,7.985
	c1.042-0.063,2.038-0.08,2.102,0.84c-1.299,1.249-0.949,4.354-1.261,5.463c-1.265-2.294,0.231-9.279-3.782-4.623
	c0.122-0.139-0.185-0.979-0.42-0.841c-0.252,3.61,1.479,5.552,1.262,7.985c-1.295-0.294-0.808-0.294-2.103,0
	c-1.303,3.228-1.042,4.051,0,7.564c0.84,0,1.681,0,2.521,0c1.879-2.219-3.068-7.132,1.681-7.145
	c0.794,4.333-1.778,6.594-1.261,11.768c2.113-0.294,2.929,0.714,5.043,0.42c0.177-0.941,0.903-1.341,1.261-2.102
	c-0.349,1.189,0.593,1.088,0.42,2.102C69.236,53.886,70.586,55.302,72.801,54.639z M73.642,160.544
	c-1.926-1.042-3.084,0.744-1.682,2.102C73.279,162.705,73.405,161.57,73.642,160.544z M72.38,257.205
	c-0.185-1.446,0.169-2.354,0.421-3.362c-2.051-2.181-4.833-1.446-6.725,0.42c-0.172,1.854,0.114,3.249,0.841,4.203
	C68.959,259.458,70.754,257.886,72.38,257.205z M70.699,335.374c0.143-3.799,1.186-12.742-2.941-8.405
	c-1.841,2.829-1.261,14.466-1.261,21.435c0,24.447-0.277,44.414,0.841,63.459c0.374,6.371-0.841,13.439-0.841,20.592
	c0,67.504-0.42,127.445-0.42,194.162c0,4.838,1.181,10.148-1.261,12.188c-2.231-1.828-1.996-5.131-2.521-7.564
	c-1.929-8.959-3.5-17.275-5.043-26.055c-14.538-82.777-24.851-170.381-36.983-253c3.782-2.224,7.488-4.783,11.347-7.146
	c3.888-2.378,8.683-3.812,11.347-7.563c-4.871,0.545-8.834,4.487-13.027,7.145c-4.32,2.736-9.137,4.938-12.607,8.404
	c11.498,78.059,23.278,153.434,34.461,230.303c3.729,25.621,6.977,52.062,16.39,73.969c0.215-26.982,1.426-56.725,1.262-83.635
	c-0.315-51.922,1.56-118.102,0.841-168.104C70.039,388.785,69.741,360.942,70.699,335.374z M68.178,160.544
	c-0.727,2.009,2.678,1.526,2.103,0C69.577,160.544,68.88,160.544,68.178,160.544z M68.178,282.421
	c2.548,0.458,2.561-2.892,0.421-2.942c-0.093,0.328-0.354,0.487-0.841,0.42C67.703,280.937,67.694,281.925,68.178,282.421z
	 M67.337,268.552c0.644-2.127,1.892-5.047,0.84-7.565c-5.156-2.976-9.783,0.84-9.666,6.724
	C61.097,269.25,63.622,268.64,67.337,268.552z M67.758,286.624c0.126-1.807,0.029-3.392-1.682-3.362
	c-1.038,0.5-1.643,1.438-2.101,2.521C65.694,286.447,66.19,286.43,67.758,286.624z M62.714,282.421
	c2.64-0.77,7.153-6.741,4.623-11.347c-3.287-0.256-5.603-0.513-8.404,0.42C56.898,276.423,61.038,279.697,62.714,282.421z
	 M68.599,192.064c-0.827-1.412-2.374-2.105-3.782-2.942c0.692-1.135-0.744-3.728-2.521-3.783c-1.967,1.673,0.282,3.812,0.42,5.884
	c-0.58-0.017-0.925,0.198-1.261,0.42c-4.563-3.139-5.615-9.792-7.985-15.129c-0.933,0.185-2.276-1.299-2.521-0.42
	c0.593,0.109,0.479,0.92,0.841,1.261c-0.13,0.24-0.272,0.37-0.42,0.42c-0.803,0.282-1.706-1.74-1.681,0
	c0.828,4.673-1.525,8.767-2.102,13.869c-0.559,0-1.122,0-1.681,0c0.819,8.229,12.305,0.261,6.304-4.203
	c0.972,0.13,0.467-1.214,1.262-1.261C54.032,192.152,63.021,202.503,68.599,192.064z M66.497,16.395
	c-0.65-1.093,0.693-3.618-0.42-5.043c-0.42,0-0.84,0-1.261,0C64.757,13.953,63.887,15.89,66.497,16.395z M65.656,312.68
	c0-1.261,0-2.521,0-3.782c-1.21-0.752-3.119-0.803-4.623-1.261c0.08-2.601-2.433-2.61-3.782-3.782
	c-1.58-1.282-8.746-5.707-12.188-3.782c-0.224,2.744-3.11,9.208,0,13.448c-5.767,2.03-10.402,11.541-5.043,14.709
	c2.089,0.13,3.854-0.067,5.463-0.42c2.337-5.968,7.515-9.435,14.709-8.405c3.349-3.198-1.219-8.258,0.42-10.506
	C63.186,309.267,62.938,312.457,65.656,312.68z M63.976,379.081c0-5.446,1.029-12.432,0-15.551
	c-0.518-1.566-4.552-4.307-6.305-6.303c-4.501-5.131-7.787-8.722-10.506-14.709c-0.818,1.062-1.982-1.072-2.941-1.262
	c-6.431,3.514-15.424,8.111-21.434,13.449c6.451,44.438,13.158,89.848,19.752,134.904c6.615,45.207,11.364,90.76,21.014,133.645
	C63.324,543.563,63.976,460.134,63.976,379.081z M60.193,259.306c1.807-1.698,4.249-2.752,5.463-5.043
	c-1.568-2.791-6.312-2.854-8.405-0.841c0.224,1.072,0.56,1.471-0.42,2.102c-1.366-5.358-6.077-2.387-8.405,0
	c0,0.702,0,1.399,0,2.101c2.519,1.492,3.346,2.455,6.725,1.681c0.979-1.311,1.059-3.131,2.102-3.362
	C56.179,257.978,58.075,259.222,60.193,259.306z M63.556,73.55c-0.034,0-0.197-1.278-0.421-2.102c-3.567,0.21-9.301-6.047-8.825,0
	C56.601,71.823,61.63,77.77,63.556,73.55z M61.033,145.415c0.559,0,1.122,0,1.681,0c-0.07-0.63,0.151-1.551-0.42-1.681
	C62.172,144.591,61.155,144.558,61.033,145.415z M58.091,331.591c1.122,0.488,4.09-0.235,3.782-2.521
	c-7.396-2.299-12.649,4.967-16.81,9.666c1.588,3.67,8.085,1.674,6.724-2.101C53.418,334.849,55.499,333.349,58.091,331.591z
	 M63.135,358.907c-1.707-7.824-3.487-15.717-2.941-23.113c-4.459-2.598-6.699,4.757-9.666,5.043c1.227,0.719-0.954,1.529-0.42,2.941
	C54.027,349.242,56.311,356.349,63.135,358.907z M58.512,133.648c0.089-1.24-1.883-2.564-2.521-1.681
	C57.129,132.228,57.037,133.724,58.512,133.648z M58.512,176.094c-2.912,0.66-3.589-3.123-5.463-2.101
	c1.598,1.488,2.098,4.064,4.203,5.043C57.495,177.88,58.297,177.279,58.512,176.094z M57.671,54.218
	c0.598-1.273-0.185-2.252-0.42-3.782c-0.702,0-1.398,0-2.102,0c0.685,1.076-0.66,2.896,0.42,4.203
	C56.583,54.811,56.482,53.87,57.671,54.218z M59.353,260.987c-6.064,0.366-11.432-1.198-14.709,4.203c-0.842,0-1.682,0-2.521,0
	c-0.294,1.244-1.252,1.828-0.841,3.782c0.534,0.584,2.06,0.185,2.102,1.261c-0.975,0.429-0.896,1.904-2.102,2.102
	c0.962,3.875-1.139,5.547,0,9.666c0.933,0.328,1.639,0.882,2.942,0.84c1.21-2.689,3.182-5.98,3.781-7.985
	c0.342,2.467,1.603,6.132,3.783,7.985c2.446-2.815,5.724-6.774,4.203-12.188c-2.984,0.315-5.846-1.181-7.985,1.261
	c-0.63-1.051-1.471-1.891-2.521-2.521c2.27-0.744,2.219-5.329,4.623-4.623c-0.374,0.887-1.278,1.244-1.261,2.521
	c0.491,0.631,1.214,1.03,1.261,2.102c1.261-0.559,3.215-0.429,5.043-0.42C56.969,266.728,57.272,262.971,59.353,260.987z
	 M51.788,327.809c1.765-2.438,7.724-0.681,8.405-4.203c-3.896-2.5-8.229-1.736-10.927,0.84c-1.072,1.025-1.105,3.119-2.103,4.203
	c-2.051,2.232-4.329,1.42-5.884,3.784c0.42,1.68,1.66,2.541,2.942,3.361C47.938,334.327,49.905,331.108,51.788,327.809z
	 M46.744,129.445c3.253-1.202,7.212,1.298,8.826,0.84c-2.168-1.563-3.379-2.412-3.782-5.043c-3.787-1.399-8.779-1.584-12.188-3.362
	c-0.728,4.278,1.113,7.451,1.261,11.347c1.378,0.685,1.604-0.097,3.362,0C44.084,130.635,47.16,131.223,46.744,129.445z
	 M52.208,139.952c0.664-0.055,3.404-1.63,5.043-2.101c-1.314-4.51-4.025-7.632-9.666-6.724c-0.604,1.496-1.66,2.542-2.102,4.202
	c-0.983-0.307-3.584-1.147-3.362,0.841c3.362,2.139,6.871,6.292,11.906,5.51c0.084-0.009,0.181-0.021,0.282-0.046
	c-0.098,0.017-0.189,0.034-0.282,0.046c-1.308,0.126-0.896-1.471-2.66-0.887c0.021-0.538,0.538-0.58,0.42-1.261
	c-1.378-0.071-1.677,0.336-2.942-1.261c0.025-1.378,1.193-1.605,0.841-3.362c2.261-0.841,4.476-0.298,5.043,1.681
	C54.246,137.959,51.325,138.548,52.208,139.952z M51.367,285.783c-0.231-0.609,0.492-2.173-0.42-2.101
	c-0.088,0.508-0.466,0.256-0.84,0c-0.462,2.151-1.441,0.748-2.942,0.42c-0.101,0.601-0.692,0.71-0.84,1.261
	C48.657,285.791,48.762,284.917,51.367,285.783z M44.644,75.651c1.227-0.597,2.223-1.42,2.101-3.362
	C44.567,72.945,46.534,74.248,44.644,75.651z M42.542,189.963c3.921-4.602,5.262-15.995,1.261-22.274
	c-5.571,0.097-11.645,2.774-14.709,6.724c1.278,3.085,3.106,6.564,7.146,4.623c0.853-1.387,1.046-3.434,1.681-5.043
	c1.34,1.698,0.281,3.231,0.42,5.883c5.931-0.391,3.127-6.442,4.203-9.246c4.431,3.089,1.542,12.398-3.782,12.188
	c-1.849-0.391-2.168-2.315-4.202-2.521C29.614,184.836,34.359,192.732,42.542,189.963z M46.324,85.738
	c-1.854-6.451-4.905-15.239-12.608-17.23c-0.093,0.328-0.353,0.487-0.841,0.42c-1.276,1.324-0.218,2.669-0.84,4.203
	C38.125,75.727,42.458,82.317,46.324,85.738z M27.833,171.051c8.178-2.551,15.255-8.426,12.188-17.651
	c-0.534-0.584-2.06-0.181-2.102-1.261c-1.383-4.921-4.899-7.708-9.666-9.246c5.917,4.367,8.637,15.789,5.463,22.274
	c-0.982-3.316-0.861-5.165-1.261-10.086c-2.45,1.097-6.762,3.85-9.246,6.304C23.794,165.563,24.731,169.387,27.833,171.051z
	 M40.021,136.169c0.37-2.051-0.588-2.774-1.262-3.782c0.093,0.794-0.475,0.929-0.42,1.681
	C39.549,134.119,38.559,136.371,40.021,136.169z M40.021,152.139c0.521-2.076-2.08-4.021-2.521-2.521
	C39.856,149.71,37.002,152.555,40.021,152.139z M39.181,144.995c0.533-1.841-0.748-4.577,0.42-7.985
	c-3.252-2.16-1.702-9.061-7.145-10.506c0.033,0.731-0.093,1.307-0.42,1.681C35.688,131.82,36.41,139.401,39.181,144.995z
	 M36.658,145.835c1.555-6.624-12.432-11.612-10.507-2.521c1.744-0.214,0.925-2.997,2.941-2.942
	C32.418,141.393,34.162,143.99,36.658,145.835z M30.354,151.719c0.878-2.32-2.282-4.271-1.682-2.521
	c0.025-0.257,0.063-0.496,0.42-0.42C29.379,149.895,29.753,150.917,30.354,151.719z M24.47,154.241c0.77-1.333,2.202-2,2.522-3.782
	c-2.278-1.454-3.816-0.051-5.043,0c0.021-3.224,3.951-4.211,5.884-2.102c-1.992-3.492-3.497-5.472-5.463-8.405
	c-4.001,0.269-4.413-0.181-7.145,1.681c-0.193,3.392,1.234,4.463,2.102,8.405c1.689,0.134,3.349,0.294,4.202,1.261
	c-1.555,0.408-1.286,2.635-1.681,4.203c0.911,0.769,1.332,2.03,2.101,2.942c1.101-0.857,3.253-0.668,3.362-2.521
	C25.832,154.56,23.949,155.603,24.47,154.241z M24.05,127.764c4.774-5.602,1.346-15.394,0.841-21.434
	c-1.496-1.256-4.519-2.92-7.146-1.681c0,0.42,0,0.84,0,1.261c5.237,2.664,7.825,9.657,4.623,16.39
	c-2.584-0.345-3.408,1.072-3.362,3.362C19.769,127.285,21.849,127.584,24.05,127.764z M24.892,135.749
	c0.033-3.156-3.021-4.871-5.043-7.145c-2.039,0.387-4.291,0.572-7.146,0c-1.555,2.824,0.26,8.019,2.942,10.086
	C17.52,136.501,23.438,138.359,24.892,135.749z M26.992,94.143c-1.934-1.71-2.887-4.396-5.464-5.463
	c-4.358,2.273-7.753,13.478-1.261,14.289C24.724,103.523,26.021,98.363,26.992,94.143z M15.646,125.243
	c2.038-4.123,5.735-5.753,5.043-10.507c-1.01-6.934-11.222-10.347-18.071-8.405c-0.42,0.559-0.399,1.563-1.261,1.681
	c-0.34,7.204,5.325,14.486,11.347,10.086c-0.651-2.16,1.109-3.303,0.42-4.203c-0.688-1.147-3.93-1.938-3.362-2.942
	c2.362,0.576,4.4,1.791,5.885,4.203c0.84,5.875-8.107,5.047-5.043,10.506C12.589,125.831,14.111,125.528,15.646,125.243z
	 M15.226,90.361c3.312-0.471,4.45-3.114,4.623-6.724c-1.548-1.429-2.236-2.286-5.043-1.681
	C13.124,84.082,14.258,88.348,15.226,90.361z M13.544,96.665c1.715-5.102-3.665-10.002-2.101-16.39
	c-1.046-0.353-2.253-0.55-3.783-0.42C5.008,84.981,6.098,95.055,13.544,96.665z M4.298,102.969c3.564-0.198,6.661,2.299,10.086,0.84
	c-1.319-6.245-9.199-5.93-8.825-13.869c-0.988-0.134-1.576-0.664-2.942-0.42C1.566,94.685,1.991,98.631,4.298,102.969z"/>
<path fill="#FFFFFF" d="M76.583,210.976c1.122,0,2.24,0,3.362,0c-0.483,1.647-0.089,1.563-0.421,3.362
	C78.709,213.052,76.7,212.96,76.583,210.976z"/>
<path fill="#FFFFFF" d="M26.151,143.314c-1.925-9.09,12.062-4.102,10.507,2.521c-2.497-1.845-4.241-4.442-7.565-5.463
	C27.076,140.317,27.896,143.1,26.151,143.314z"/>
<path d="M90.451,103.389c0.063,1.047-0.659,1.303-0.84,2.102c-2.026-0.294,0.533-1.912-0.421-2.102
	C89.498,102.641,89.956,103.33,90.451,103.389z"/>
<path d="M95.915,106.331c2.055,0.53,0.193,3.623-0.42,4.203c-1.682-0.479-1.904-0.239-3.783-0.84
	C91.611,107.07,95.643,108.579,95.915,106.331z"/>
<path fill="#FFFFFF" d="M53.048,173.993c1.875-1.021,2.552,2.761,5.463,2.101c-0.214,1.185-1.017,1.786-1.261,2.942
	C55.146,178.057,54.646,175.481,53.048,173.993z"/>
<path fill="#FFFFFF" d="M88.771,272.755c0.836,2.114-0.664,2.509-0.841,4.623c-0.542-2,0-3.61-2.521-4.203
	c-1.576,0.878-1.185,5.926,1.682,5.043c-0.093,1.588-1.319,2.042-1.682,3.362c-2.479-2.185-6.047-6.943-3.362-10.506
	C84.585,271.338,87.409,271.313,88.771,272.755z"/>
<path fill="#FFFFFF" d="M65.656,254.263c-1.215,2.291-3.656,3.345-5.463,5.043c-2.118-0.084-4.015-1.328-2.942-3.362
	c-1.042,0.231-1.122,2.051-2.102,3.362c-3.379,0.773-4.207-0.189-6.725-1.681c0-0.702,0-1.399,0-2.101
	c2.328-2.387,7.04-5.358,8.405,0c0.979-0.63,0.644-1.03,0.42-2.102C59.344,251.41,64.088,251.473,65.656,254.263z M60.613,256.364
	c1.11-0.929-0.16-2.963-1.261-1.681C59.281,255.738,60.294,255.705,60.613,256.364z"/>
<path fill="#FFFFFF" d="M132.479,81.956c1.604,5.27,0.458,11.259-2.521,14.289c-1.038-0.5-1.643-1.438-2.102-2.522
	C132.074,90.899,127.115,81.254,132.479,81.956z"/>
<path fill="#FFFFFF" d="M55.57,130.286c-1.614,0.458-5.573-2.042-8.826-0.84c0.416,1.777-2.66,1.189-2.521,3.782
	c-1.758-0.097-1.983,0.685-3.362,0c-0.147-3.896-1.988-7.069-1.261-11.347c3.408,1.778,8.4,1.963,12.188,3.362
	C52.191,127.874,53.401,128.722,55.57,130.286z M42.962,130.286c2.291-0.929,6.741-4.518,8.826-1.681
	c-1.559-4.261-8.41-2.286-9.246,0.42C43.033,129.096,43,129.689,42.962,130.286z"/>
<path d="M55.57,156.762c1.765,0.139-0.177,2.946-0.42,3.782C53.642,159.28,56.213,158.553,55.57,156.762z"/>
<path fill="#FFFFFF" d="M113.566,82.796c1.265-0.004,2.391,1.168,2.94,1.261c-0.49,8.313-10.057,7.17-15.55,8.405
	C98.392,91.105,109.905,82.805,113.566,82.796z"/>
<path fill="#FFFFFF" d="M84.148,57.58c-7.721,0.917-16.524-1.029-23.535,0.42c-1.584-2.147-4.392,1.303-5.463-1.261
	c-0.008-1.794,2.193,0.294,3.783-0.42c0.933,0.185,2.277-1.298,2.521-0.42c3.187,0.563,8.459-0.059,13.869,0
	C78.176,55.929,82.492,55.677,84.148,57.58z"/>
<path d="M68.178,93.723c0.854,1.665,0.131,3.593-2.102,3.362c0.109-1.231-0.95-1.29-0.84-2.521
	C66.145,94.21,66.669,93.475,68.178,93.723z"/>
<path fill="#FFFFFF" d="M81.626,280.319c-0.181,0.798-0.902,1.055-0.841,2.102c-0.559,0-1.122,0-1.681,0
	C77.608,280.878,80.121,278.861,81.626,280.319z"/>
<path fill="#FFFFFF" d="M122.393,92.882c2.883,3.228,2.879,6.968,2.94,11.347c-3.934,2.076-7.258,0.151-10.086-2.102
	c0.771-1.794,1.622-4.139,0.42-6.304C117.029,92.563,120.271,93.769,122.393,92.882z"/>
<path d="M90.031,109.693c0.433,2.534-2.404,1.799-2.521,3.782c-0.856-1.433,0.529-4.219,0.842-5.884
	C89.418,107.785,89.058,109.407,90.031,109.693z"/>
<path fill="#FFFFFF" d="M68.178,260.987c1.052,2.518-0.196,5.438-0.84,7.565c-3.715,0.088-6.24,0.697-8.826-0.841
	C58.395,261.828,63.021,258.012,68.178,260.987z"/>
<path fill="#FFFFFF" d="M98.856,71.869c-1.214,1.324-2.689-0.647-2.941-1.681C97.449,70.197,97.802,71.382,98.856,71.869z"/>
<path d="M83.309,82.376c0.168,1.706-1.791,1.294-2.103,2.521c-1.276-0.13-1.706-2.375-0.841-3.362
	C82.109,81.052,82.004,82.418,83.309,82.376z"/>
<path fill="#FFFFFF" d="M33.716,68.507c7.703,1.992,10.754,10.779,12.608,17.23c-3.867-3.421-8.2-10.011-14.289-12.608
	c0.622-1.534-0.437-2.879,0.84-4.203C33.363,68.995,33.624,68.835,33.716,68.507z"/>
<path fill="#FFFFFF" d="M66.076,65.565c-0.458-4.745,7.746-6.699,7.146-0.42C70.817,65.855,69.119,66.238,66.076,65.565z"/>
<path d="M68.599,44.132c-0.121,1.139-1.538,0.983-1.682,2.102c-2.118-0.013-0.416-1.236-0.841-2.942
	C66.812,43.674,68.174,43.434,68.599,44.132z"/>
<path d="M67.337,31.944c0.382,1.438,1.114,2.526,1.682,3.782c-1.656,0.349-1.875,2.782-2.103,3.362
	c-1.841,0.307,0.34-0.836-0.841-0.841C67.804,37.454,66.287,33.415,67.337,31.944z"/>
<path fill="#FFFFFF" d="M55.99,131.967c0.639-0.883,2.61,0.441,2.521,1.681C57.037,133.724,57.129,132.228,55.99,131.967z"/>
<path fill="#FFFFFF" d="M81.626,159.704c-0.79,0.744,0.5,1.227-0.42,2.101c-1.108,0.126-1.085-0.878-1.261-1.681
	c-1.682,0.861-2.963,0.647-5.043,1.681c-0.328-0.374-0.454-0.95-0.421-1.681c0.883-0.799,3.487,0.126,3.361-1.681
	C79.571,158.397,79.524,160.125,81.626,159.704z"/>
<path fill="#FFFFFF" d="M68.599,279.479c2.14,0.05,2.127,3.4-0.421,2.942c-0.482-0.496-0.475-1.484-0.42-2.522
	C68.245,279.966,68.506,279.807,68.599,279.479z"/>
<path fill="#FFFFFF" d="M65.656,74.391c-4.148-6.959,10.624-10.208,8.825-0.84C71.363,74.664,69.615,73.357,65.656,74.391z"/>
<path fill="#FFFFFF" d="M107.262,172.732c1.9,2.13-0.437,6.682-3.781,6.304C102.693,176.313,104.526,173.262,107.262,172.732z"/>
<path fill="#FFFFFF" d="M60.193,323.606c-0.682,3.522-6.641,1.765-8.405,4.203c-1.883,3.299-3.85,6.518-7.564,7.985
	c-1.282-0.818-2.521-1.682-2.942-3.361c1.555-2.363,3.833-1.552,5.884-3.784c0.996-1.084,1.03-3.177,2.103-4.203
	C51.964,321.871,56.297,321.106,60.193,323.606z"/>
<path fill="#FFFFFF" d="M104.74,104.23c-0.63,0.492-1.029,1.214-2.101,1.261c0.353-0.487,0.555-1.126,0.42-2.102
	C104.207,103.082,103.904,104.225,104.74,104.23z"/>
<path d="M63.976,100.027c1.004-0.975,3.992-0.37,3.782,1.261c-1.35-0.349-0.869-0.357-1.682,0.42
	C64.472,102.052,65.581,99.682,63.976,100.027z"/>
<path fill="#FFFFFF" d="M64.815,189.123c1.408,0.836,2.955,1.53,3.782,2.942c-5.577,10.439-14.566,0.088-15.13-5.884
	c-0.794,0.046-0.29,1.391-1.261,1.261c6.001,4.463-5.483,12.431-6.304,4.203c0.559,0,1.122,0,1.681,0
	c0.576-5.102,2.93-9.195,2.102-13.869c-0.025-1.74,0.878,0.282,1.681,0c-0.853,1.265-0.483,4.211,1.681,3.782
	c-0.929-1.757-0.055-2.723-1.681-3.782c0.147-0.05,0.29-0.181,0.42-0.42c-0.361-0.34-0.248-1.151-0.841-1.261
	c0.244-0.878,1.589,0.604,2.521,0.42c2.371,5.337,3.421,11.99,7.985,15.129c0.336-0.223,0.681-0.437,1.261-0.42
	c-0.139-2.072-2.387-4.211-0.42-5.884C64.072,185.395,65.509,187.988,64.815,189.123z"/>
<path fill="#FFFFFF" d="M37.499,149.618c0.441-1.5,3.042,0.446,2.521,2.521C37.002,152.555,39.856,149.71,37.499,149.618z"/>
<path d="M77.003,255.524c0.626-0.668,2.396-0.614,2.103,0.84C78.479,257.033,76.709,256.978,77.003,255.524z"/>
<path d="M51.788,128.605c-2.084-2.836-6.535,0.752-8.826,1.681c0.038-0.597,0.071-1.189-0.42-1.261
	C43.378,126.318,50.229,124.343,51.788,128.605z"/>
<path d="M75.322,273.595c1.131,1.277,0.256,1.962,0.42,4.203c-0.487-0.067-0.748,0.092-0.84,0.42
	c-1.183-0.08-1.152-1.37-2.103-1.681c0.071-1.189,0.77-1.752,0.841-2.942C74.2,273.595,74.765,273.595,75.322,273.595z"/>
<path fill="#FFFFFF" d="M102.219,107.171c1.014-0.172,0.912,0.769,2.103,0.42c-0.328,0.374-0.454,0.95-0.42,1.681
	c-0.887,0.559-1.244-0.206-2.521,0.42c0.252,1.567-1.076,2.656,0,3.782c0.719,0.017,1.088-0.311,1.262-0.84
	c0.517,0.273-0.426,2.631-0.842,3.362c-0.56,0-1.122,0-1.682,0c0-0.702,0-1.399,0-2.101c-2.097,0.988-3.753,2.412-7.144,2.101
	c-0.736-1.487,0.28-1.034,0.42-2.521c-0.366-0.613-0.631-1.332-1.683-1.261c-1.437,0.223-0.643,2.026-0.42,2.942
	c-1.328,1.294-4.067,0.895-4.202-1.261c-2.521,3.833-8.409,1.875-11.348,0.84c-0.689,2.27-7.603,2.4-7.984-0.42
	c-4.74,3.249-12.961-0.664-17.65,2.521c6.703,0.748,15.196-0.79,21.434,2.521c7.515-2.871,22.446-1.042,29.839,0.42
	c-1.304,2.66-3.787,1.063-5.044,1.261c-10.553,1.66-13.405,14.264-24.375,14.709c-0.017-1.383-0.71-2.093-0.42-3.782
	c2.945-0.504,6.683-0.361,8.405-3.782c-2.202-0.319-1.925,3.089-5.884,1.261c1.223-2.421,3.724-7.157,0.42-9.246
	c0.089,2.131,0.042,6.414-2.521,7.145c-1.013-0.773,0.576-2.479,0-4.203c-0.566,1.391-2.492,1.429-3.782,2.102
	c0.468,0.794,0.538,1.983,0.842,2.942c-1.014,0.172-0.912-0.769-2.103-0.42c-0.214,2.034,2.412,1.231,2.941,2.521
	c-0.411,1.177-1.122-0.609-1.682,0.42c0.724,0.681,1.042,1.757,0.842,3.362c-6.481,3.799-11.579-5.27-15.13-9.666
	c-4.619-3.929-12.57-0.218-14.709-7.144c2.857-0.576,8.09-1.841,10.086-0.42c0.865-2.03-7.6-2.379-12.188-1.261
	c-0.202,5.026,0.53,6.892,0.42,11.347c-6.745-1.765-9.106-11.28-8.405-18.912c0.45-4.892-1.513-10.998,2.521-13.028
	c2.366-1.189,4.644,0.382,7.564-0.42c-2.067-3.396-8.24-2.686-12.607-3.782c-1.866-2.169-4.519-7.25-1.261-9.666
	c7.152,2.185,15.032,5.577,15.55,13.028c1.916,0.517,1.328-1.475,2.521-1.681c-0.307-3.391-5.308-8.968-9.246-10.927
	c-3.739-1.857-9.867-2.097-5.043-6.724c7.149,2.66,12.7,6.909,14.709,14.709c1.291,1.476,3.347,0.374,2.942-2.101
	c1.967-1.736,4.043-0.752,6.304-2.101c1.58-0.181,1.488,1.315,2.521,1.681c-2.328-1.509,0.5-6.661-2.521-6.724
	c-0.714,2.089-0.566,5.035-4.203,4.203c-0.63-2.563,0.261-4.656-0.841-7.145c0.563-0.529,0.824-1.265,1.682-0.42
	c0.135-1.396-0.934-1.589-1.262-2.522c0.29-1.672,2.455-1.471,2.521-3.362c2.236,0.412,3.278,1.298,5.043,2.942
	c-0.53,1.622-0.904,3.618-1.261,5.883c1.466-1.723,9.162-4.719,8.824,2.102c-1.579,0.521-3.883,0.319-3.781,2.521
	c1.227,0.454,1.475,1.887,1.261,3.782c-1.051-0.071-1.315,0.647-1.681,1.261c-1.312-0.454-2.572-0.954-2.942-1.261
	c-0.218,1.034-1.029,1.442-0.84,3.783c0.887,1.076,2.483,1.441,4.623,1.261c2.361-1.42,2.429-5.136,5.043-6.304
	c-1.488-6.245-0.071-12.276,7.564-10.927c2.618,2.644,1.361,6.535,0.42,10.507c-3.766-0.912-4.833,0.571-7.563,0.42
	c-0.702,1.958-1.312,4.014-1.681,6.304c0.756-1.076,2.219-1.702,1.261-3.362c2.542,0.509,3.967-1.933,6.724-0.84
	c3.896,1.542,5.493,9.868-0.42,10.506c0.79,1.689-0.597,3.303,0.84,4.623c-0.486,1.896-3.425,1.341-3.36,3.782
	c7.039,2.644,7.51-9.863,8.404-13.448c-0.845-1.773-2.27-4.883-1.682-6.724c2.547,0.298,4.753,1.58,3.782,4.203
	c1.963,2.396,2.16,1.429,5.884,1.681c2.581-1.761,1.631-7.056,2.942-10.086c4.73,0.168,5.08,4.724,8.404,6.304
	c0.134,5.678-0.051,7.388-2.941,10.927c1.23-0.45,2.169-1.193,4.203-0.84c1.188-0.908,0.864-2.068,1.261-2.942
	c0.181-1.16-1.567-0.395-1.683-1.261c-0.062-1.046,0.66-1.303,0.842-2.102c1.613,0.21,2.398,1.244,3.361,2.102
	c-0.681,1.416-2.454,5.304,0.42,5.463c-0.975,3.085-2.139,5.984-3.781,8.405c2.224,0.319,0.396-1.101,1.261-1.681
	C100.487,108.596,103.627,108.982,102.219,107.171z M99.697,103.809c0.735-1.488-1.412-2.164-0.42-2.521
	c0.987-0.946-1.105,0.349-2.103,0c0.122,2.278-0.785,1.656-0.841,4.203C97.668,105.142,98.117,103.91,99.697,103.809z
	 M95.495,115.156c0.916-0.908,1.622-2.017,1.681-3.782c-1.677,0.286-2.356,1.567-3.361,2.521
	C94.625,114.068,94.146,115.526,95.495,115.156z M95.495,110.533c0.613-0.58,2.475-3.673,0.42-4.203
	c-0.272,2.249-4.304,0.74-4.203,3.362C93.591,110.294,93.814,110.054,95.495,110.533z M95.495,104.23
	c-1.282-0.845-1.812-2.299-3.362-0.841c-0.206,1.32,1.45,1.11,0.42,2.102C94.007,105.541,94.532,104.671,95.495,104.23z
	 M92.133,96.245c-1.753-0.462-1.753,2.984,0,2.521C92.095,97.194,91.662,97.568,92.133,96.245z M89.611,105.49
	c0.181-0.798,0.903-1.055,0.84-2.102c-0.495-0.059-0.953-0.748-1.261,0C90.146,103.578,87.585,105.196,89.611,105.49z
	 M87.51,113.475c0.117-1.983,2.954-1.248,2.521-3.782c-0.975-0.286-0.613-1.908-1.681-2.102
	C88.039,109.256,86.652,112.042,87.51,113.475z M87.09,99.606c1.445,0.66,1.996-2.815,0.42-2.521
	C87.001,97.736,86.165,98.724,87.09,99.606z M84.988,109.693c-0.038-1.412,2.021-3.366,0-4.203
	C84.893,107.079,82.206,108.898,84.988,109.693z M84.148,114.316c-0.109-1.231,0.95-1.291,0.841-2.522c-0.42,0-0.841,0-1.261,0
	c0.126,0.828-0.567,0.833-0.842,1.261C83.683,113.101,83.177,114.446,84.148,114.316z M81.626,127.344
	c-0.37-1.349,1.388-0.576,1.261-1.681c-0.566-0.13-0.803-0.597-1.681-0.42C81.438,125.852,80.714,127.416,81.626,127.344z
	 M80.785,113.475c0-0.702,0-1.399,0-2.101c-1.513,0-2.08,1.471-0.84,2.101C80.033,112.967,80.411,113.219,80.785,113.475z
	 M71.96,97.085c2.904,0.017,1.103-4.337-0.841-2.942C70.636,95.887,72.002,95.782,71.96,97.085z M69.439,99.606
	c2.155,0.546,1.954-2.059,0-1.681C69.439,98.484,69.439,99.047,69.439,99.606z M66.076,97.085c2.231,0.231,2.955-1.698,2.102-3.362
	c-1.509-0.248-2.033,0.488-2.941,0.841C65.127,95.795,66.187,95.854,66.076,97.085z M67.758,101.288
	c0.21-1.631-2.777-2.236-3.782-1.261c1.604-0.345,0.496,2.025,2.101,1.681C66.889,100.93,66.408,100.939,67.758,101.288z
	 M61.454,127.764c0.655,0.887,1.06,2.021,2.521,2.101C63.64,128.916,61.874,127.239,61.454,127.764z M56.41,84.057
	c1.412-0.13,1.677-1.403,2.102-2.521c-0.836-0.004-0.533-1.147-1.681-0.84C56.179,81.304,56.461,82.847,56.41,84.057z"/>
<path d="M84.988,105.49c2.021,0.836-0.038,2.791,0,4.203C82.206,108.898,84.893,107.079,84.988,105.49z"/>
<path fill="#FFFFFF" d="M72.801,139.531c0.416,3.791,3.731,6.909,5.043,8.405c-1.188,2.173-4.907,1.816-6.304,3.783
	c-3.362-1.194-7.006-1.236-8.826-1.261c-2.013-2.551,1.202-5.333,3.782-5.884C67.271,141.343,68.648,136.955,72.801,139.531z"/>
<path fill="#FFFFFF" d="M87.09,181.558c0,0.559,0,1.122,0,1.681C85.473,183.571,85.473,181.226,87.09,181.558z"/>
<path fill="#FFFFFF" d="M94.654,134.488c-0.729,1.933-2.724,2.602-2.942,5.043c-0.94-1.118-2.104,0.593-2.94-0.42
	c-0.403-1.526,1.887-0.353,1.681-1.681c-0.037-1.786-0.991-2.652-2.941-2.521c-1.354,0.609-1.705,2.219-2.102,3.782
	c-1.601,0.719-2.622-1.244-2.941-0.42C82.336,134.039,92.99,128.42,94.654,134.488z"/>
<path fill="#FFFFFF" d="M116.928,151.719c-0.714,1.104-0.042,3.602-0.84,4.623c-2.899-0.181-5.098-1.067-6.725-2.521
	C110.1,151.336,114.592,152.606,116.928,151.719z"/>
<path fill="#FFFFFF" d="M60.193,335.794c-0.546,7.396,1.234,15.289,2.941,23.114c-6.824-2.56-9.106-9.666-13.027-15.13
	c-0.534-1.411,1.646-2.223,0.42-2.94C53.494,340.551,55.734,333.196,60.193,335.794z"/>
<path fill="#FFFFFF" d="M39.601,137.01c-1.168,3.409,0.113,6.145-0.42,7.985c-2.771-5.594-3.493-13.175-7.146-16.811
	c0.328-0.374,0.454-0.95,0.42-1.681C37.898,127.949,36.348,134.85,39.601,137.01z"/>
<path fill="#FFFFFF" d="M54.027,141.679c0.093-0.013,0.185-0.03,0.282-0.046C54.208,141.658,54.111,141.67,54.027,141.679z"/>
<path fill="#FFFFFF" d="M85.408,253.843c0.463,1.639-2.505,1.686-2.521,0.42C82.85,252.712,84.992,252.817,85.408,253.843z"/>
<path fill="#FFFFFF" d="M24.892,106.331c0.504,6.04,3.934,15.832-0.841,21.434c-2.201-0.181-4.282-0.479-5.043-2.102
	c-0.046-2.29,0.778-3.707,3.362-3.362c3.202-6.733,0.614-13.726-4.623-16.39c0-0.42,0-0.841,0-1.261
	C20.373,103.41,23.396,105.074,24.892,106.331z"/>
<path fill="#FFFFFF" d="M26.992,150.459c-0.32,1.782-1.753,2.45-2.522,3.782c-0.521,1.362,1.362,0.319,0.842,1.681
	c-0.109,1.853-2.262,1.664-3.362,2.521c-0.769-0.912-1.189-2.173-2.101-2.942c0.395-1.567,0.126-3.795,1.681-4.203
	c-0.854-0.967-2.513-1.126-4.202-1.261c-0.866-3.942-2.295-5.014-2.102-8.405c2.731-1.862,3.144-1.412,7.145-1.681
	c1.967,2.934,3.471,4.913,5.463,8.405c-1.933-2.11-5.863-1.122-5.884,2.102C23.176,150.408,24.714,149.004,26.992,150.459z"/>
<path d="M63.976,129.865c-1.462-0.08-1.866-1.214-2.521-2.101C61.874,127.239,63.64,128.916,63.976,129.865z"/>
<path fill="#FFFFFF" d="M57.671,213.061c0.14-1.567,2.48-4.333,5.043-2.084c-0.42,2.223-0.739,5.19,0.42,7.985
	c2.668-1.437-0.94-5.783,1.262-7.985c2.071-0.109,4.089-0.168,4.623,1.261c1.743-0.218,1.803-2.122,4.201-1.681
	c1.324,0.917,1.567,2.917,2.103,4.623c0.314,1.576-1.605,0.916-1.682,2.101c-0.182,1.581,1.314,1.488,1.682,2.522
	c1.555-0.265,1.281-2.362,1.261-4.203c0.857-0.303,1.664-1.32,2.521-0.42c-0.903,0.357-0.976,1.546-0.841,2.942
	c0.318,1.084,1.341,1.458,2.941,1.261c2.603,3.824,4.669,6.964,6.724,10.506c1.072,8.977-1.537,12.482-4.621,18.071
	c-3.061,1.126-10.723,2.177-13.449,3.783c-1.467-2.455-7.875,0.029-9.246-2.522c-0.492,0.067-0.354,0.765-0.42,1.261
	c-4.539,0.054-8.128-0.841-10.927-2.522c-4.809-9.603-4.801-21.542,5.463-28.157c0.738-3.938-6.085-11.002,2.521-9.246
	C56.948,211.834,57.671,212.082,57.671,213.061z M69.02,219.381c0.916,0.223,2.719,1.017,2.94-0.42
	c-2.06-1.277-1.265-4.766-2.521-5.883C68.648,214.595,68.165,217.473,69.02,219.381z M59.773,218.541
	c-0.416-1.404-0.37-3.274-1.682-3.783C58.227,216.448,57.411,219.079,59.773,218.541z"/>
<path fill="#FFFFFF" d="M124.072,107.591c-0.188,2.333-2.004,3.039-3.782,3.783c-2.896,3.862-2.845,10.985,0,15.129
	c-1.155,0.807-2.314,1.605-4.202,1.681c-3.287-3.11,0.122-10.423-3.361-13.028c-0.014-1.412,1.944-0.857,2.521-1.681
	c-1.303-3.345,1.467-6.035,2.941-7.985C120.08,106.264,122.114,106.885,124.072,107.591z"/>
<path fill="#FFFFFF" d="M83.37,206.593c-0.017,0.059-0.038,0.118-0.062,0.181C83.315,206.702,83.337,206.643,83.37,206.593z"/>
<path d="M71.119,94.143c1.942-1.395,3.745,2.958,0.841,2.942C72.002,95.782,70.636,95.887,71.119,94.143z"/>
<path d="M68.599,254.684c1.104-0.126,1.379,0.58,1.261,1.681C68.754,256.491,68.481,255.785,68.599,254.684z"/>
<path fill="#FFFFFF" d="M19.849,83.637c-0.173,3.61-1.312,6.253-4.623,6.724c-0.968-2.013-2.102-6.279-0.42-8.405
	C17.612,81.351,18.301,82.208,19.849,83.637z"/>
<path fill="#FFFFFF" d="M38.759,132.387c0.673,1.008,1.632,1.731,1.262,3.782c-1.462,0.202-0.472-2.051-1.682-2.102
	C38.285,133.316,38.853,133.181,38.759,132.387z"/>
<path fill="#FFFFFF" d="M106.001,69.348c0.683-0.118,0.725,0.399,1.261,0.42c-0.971,5.77-6.505,10.187-10.086,14.709
	c-3.925-2.53,4.183-10.725,5.465-13.869C104.383,70.814,104.95,69.839,106.001,69.348z"/>
<path fill="#FFFFFF" d="M50.947,283.682c0.912-0.072,0.188,1.492,0.42,2.101c-2.605-0.866-2.71,0.008-5.043-0.42
	c0.147-0.55,0.739-0.66,0.84-1.261c1.5,0.328,2.479,1.731,2.942-0.42C50.481,283.938,50.859,284.19,50.947,283.682z"/>
<path fill="#FFFFFF" d="M111.045,76.492c0.323,1.584-0.514,2.009-0.421,3.362c-4.665,2.341-7.603,6.405-12.606,8.405
	C101.673,83.918,104.106,76.156,111.045,76.492z"/>
<path fill="#FFFFFF" d="M71.96,162.646c-1.402-1.357-0.244-3.144,1.682-2.102C73.405,161.57,73.279,162.705,71.96,162.646z"/>
<path fill="#FFFFFF" d="M70.279,160.544c0.575,1.526-2.829,2.009-2.103,0C68.88,160.544,69.577,160.544,70.279,160.544z"/>
<path fill="#FFFFFF" d="M136.682,93.723c1.94,4.963-2.094,11.015-7.146,11.768c-0.483-1.366,1.281-2.584,0-3.362
	C132.353,99.758,134.65,96.879,136.682,93.723z"/>
<path d="M82.887,125.663c0.127,1.105-1.631,0.332-1.261,1.681c-0.912,0.072-0.188-1.492-0.42-2.101
	C82.084,125.066,82.319,125.533,82.887,125.663z"/>
<path fill="#FFFFFF" d="M90.872,68.087c-4.459-1.072-7.695,0.328-13.448,0.84c-0.861-1.521-1.285-3.476-1.261-5.883
	c0.281,0,0.56,0,0.84,0C79.524,68.469,89.394,61.951,90.872,68.087z"/>
<path d="M84.988,111.794c0.109,1.231-0.95,1.291-0.841,2.522c-0.972,0.13-0.466-1.215-1.262-1.261
	c0.273-0.429,0.968-0.433,0.842-1.261C84.148,111.794,84.568,111.794,84.988,111.794z"/>
<path fill="#FFFFFF" d="M106.422,115.577c1.147,0.038,0.846-0.702,1.682,0c-0.472,1.067-1.034,2.051-1.682,2.942
	C105.707,117.9,106.577,117.405,106.422,115.577z"/>
<path fill="#FFFFFF" d="M97.176,340.417c8.104,1.156,15.205,6.917,23.114,9.666c-7.531,44.17-15.218,96.883-22.272,142.469
	c-7.115,45.973-13.079,92.898-22.694,136.166c-0.576,2.592-0.164,6.055-2.521,7.984c18.332-90.379,25.717-191.703,39.506-286.619
	c-3.923-3.921-10.933-4.758-15.131-8.405C97.176,341.257,97.176,340.837,97.176,340.417z"/>
<path fill="#FFFFFF" d="M103.061,170.21c0.298,2.753-4.267,4.829-2.521,9.246c-0.566,0.412-0.841,1.122-1.261,1.681
	C93.104,178.238,97.987,171.06,103.061,170.21z"/>
<path fill="#FFFFFF" d="M98.856,142.894c-0.298,5.165-3.454,7.472-7.146,9.246c-2.227-2.815-3.761-6.325-6.724-8.405
	C89.544,144.049,94.864,141.565,98.856,142.894z"/>
<path fill="#FFFFFF" d="M72.801,253.843c-0.252,1.009-0.604,1.917-0.421,3.362c-1.626,0.681-3.421,2.252-5.463,1.261
	c-0.727-0.954-1.013-2.349-0.841-4.203C67.968,252.397,70.75,251.662,72.801,253.843z M69.858,256.364
	c0.118-1.101-0.155-1.807-1.261-1.681C68.481,255.785,68.754,256.491,69.858,256.364z"/>
<path fill="#FFFFFF" d="M84.568,147.517c-1.37,0.109-2.021-0.5-2.103-1.681C83.467,146.096,84.425,146.398,84.568,147.517z"/>
<path fill="#FFFFFF" d="M121.131,143.314c1.118,5.934-4.846,5.547-7.563,5.463C115.512,146.382,117.416,143.944,121.131,143.314z"/>
<path d="M58.091,214.758c1.312,0.509,1.266,2.379,1.682,3.783C57.411,219.079,58.227,216.448,58.091,214.758z"/>
<path fill="#FFFFFF" d="M63.135,71.449c0.224,0.824,0.387,2.102,0.421,2.102c-1.926,4.219-6.955-1.727-9.246-2.102
	C53.834,65.401,59.566,71.659,63.135,71.449z"/>
<path fill="#FFFFFF" d="M85.408,80.274c-1.029,1.215-1.739,2.866,0,3.782c-0.272,1.366-3.097,2.408-0.84,3.783
	c-0.067,1.891-2.603,1.324-2.522,3.362c-3.398-0.71-0.466-5.14-4.622-4.203c-0.743-2.979-0.622-6.081,0.42-9.246
	C81.197,77.652,83.935,76.438,85.408,80.274z M81.206,84.897c0.312-1.227,2.271-0.815,2.103-2.521
	c-1.305,0.042-1.198-1.324-2.942-0.841C79.5,82.523,79.929,84.767,81.206,84.897z"/>
<path d="M92.133,98.766c-1.753,0.462-1.753-2.984,0-2.521C91.662,97.568,92.095,97.194,92.133,98.766z"/>
<path fill="#FFFFFF" d="M100.117,134.068c-2.861-0.786-5.026-4.492-6.304-5.463C96.196,128.538,98.411,132.076,100.117,134.068z"/>
<path d="M87.51,97.085c1.576-0.294,1.025,3.182-0.42,2.521C86.165,98.724,87.001,97.736,87.51,97.085z"/>
<path fill="#FFFFFF" d="M66.076,11.352c1.114,1.425-0.231,3.95,0.42,5.043c-2.61-0.504-1.74-2.442-1.681-5.043
	C65.236,11.352,65.656,11.352,66.076,11.352z"/>
<path fill="#FFFFFF" d="M67.758,326.968c4.127-4.337,3.084,4.606,2.941,8.405c-0.958,25.569-0.66,53.412-0.42,70.185
	c0.719,50.002-1.156,116.182-0.841,168.104c0.164,26.91-1.047,56.65-1.262,83.633c-9.413-21.904-12.662-48.348-16.39-73.967
	c-11.183-76.869-22.963-152.244-34.461-230.303c3.471-3.467,8.287-5.67,12.607-8.405c4.193-2.656,8.157-6.599,13.027-7.146
	c-2.665,3.754-7.459,5.187-11.347,7.564c-3.858,2.361-7.564,4.921-11.347,7.145c12.133,82.621,22.445,170.223,36.982,253
	c1.542,8.779,3.114,17.096,5.043,26.055c0.525,2.436,0.29,5.736,2.521,7.564c2.441-2.037,1.261-7.35,1.261-12.188
	c0-66.717,0.42-126.658,0.42-194.162c0-7.15,1.215-14.221,0.841-20.592c-1.118-19.047-0.841-39.014-0.841-63.459
	C66.497,341.435,65.917,329.797,67.758,326.968z"/>
<path fill="#FFFFFF" d="M62.714,145.415c-0.559,0-1.122,0-1.681,0c0.122-0.857,1.139-0.824,1.261-1.681
	C62.866,143.864,62.644,144.785,62.714,145.415z"/>
<path fill="#FFFFFF" d="M63.135,61.363c-0.546,1.693,1.202,3.24,0.421,3.782c-0.239,1.723-2.665,1.257-3.362,2.521
	c-2.135-1.992-9.96-1.408-9.246,3.362c-2.215,0.971-4.682-3.173-2.521-5.463c3.304-1.467,9.658-0.156,11.769-1.681
	c0.066-1.328-1.118-1.404-0.841-2.942C61.012,60.547,61.79,60.615,63.135,61.363z"/>
<path d="M53.048,181.558c-2.165,0.429-2.533-2.517-1.681-3.782C52.994,178.835,52.12,179.801,53.048,181.558z"/>
<path fill="#FFFFFF" d="M136.682,111.374c-0.155,1.076-0.729,2.639-1.683,1.681c1.851,3.375-2.059,7.174-5.463,7.985
	c-0.832-1.27-1.929-2.274-2.102-4.203c2.235-1.126,3.193-3.53,6.725-3.362c0.243-1.647-1.728-1.072-2.102-2.101
	c-1.53,0.433-2.82,1.101-4.203,1.681c-5.08,4.127,0.211,8.375,0,13.448c-0.598-0.038-1.188-0.071-1.262,0.42
	c-3.509-4.518-7.193-7.968-3.36-14.289C127.456,111.655,133.424,106.003,136.682,111.374z"/>
<path fill="#FFFFFF" d="M43.802,167.689c4.001,6.279,2.661,17.672-1.261,22.274c-8.182,2.77-12.927-5.127-7.984-9.666
	c2.033,0.206,2.354,2.131,4.202,2.521c5.325,0.21,8.213-9.099,3.782-12.188c-1.076,2.803,1.729,8.855-4.203,9.246
	c-0.139-2.652,0.92-4.186-0.42-5.883c-0.635,1.609-0.828,3.656-1.681,5.043c-4.039,1.941-5.867-1.538-7.146-4.623
	C32.157,170.463,38.23,167.786,43.802,167.689z"/>
<path d="M99.277,101.288c-0.992,0.357,1.155,1.034,0.42,2.521c-1.58,0.101-2.029,1.333-3.362,1.681
	c0.056-2.547,0.963-1.925,0.841-4.203C98.172,101.636,100.266,100.342,99.277,101.288z"/>
<path fill="#FFFFFF" d="M80.365,202.991c1.828-3.921,5.01,1,4.623,3.362c-0.589,0.03-1.392-0.151-1.618,0.24
	C84.034,204.546,81.686,204.882,80.365,202.991z"/>
<path fill="#FFFFFF" d="M108.523,155.922c5.351,0.685,8.511,7.266,3.361,10.506c0.37,2.471-0.391,3.808-2.102,4.203
	C103.362,167.811,106.081,160.427,108.523,155.922z"/>
<path d="M44.224,268.132c0.281,0,0.559,0,0.841,0c-0.29,0.74-0.462,1.303,0,1.681C43.854,270.889,43.672,268.745,44.224,268.132z"/>
<path fill="#FFFFFF" d="M124.913,130.286c0.563,3.261-2.379,6.178-4.202,8.405c-2.861,1.034-4.884-2.11-7.145-1.681
	c-0.093-1.353,0.743-1.777,0.42-3.362C117.411,132.488,121.551,130.147,124.913,130.286z"/>
<path d="M58.512,290.826c0.837,0.004,0.534,1.147,1.682,0.84c-0.677,1.219-1.85,0.063-3.362,0
	C56.528,290.523,58.815,291.969,58.512,290.826z"/>
<path d="M69.439,97.925c1.954-0.378,2.155,2.228,0,1.681C69.439,99.047,69.439,98.484,69.439,97.925z"/>
<path fill="#FFFFFF" d="M85.829,342.099c1.387,6.975-7.922,16.053-10.927,18.07c-2.946-6.777,6.594-15.839,2.101-24.375
	C79.953,333.508,85.358,339.739,85.829,342.099z"/>
<path fill="#FFFFFF" d="M28.673,149.198c-0.601-1.749,2.561,0.202,1.682,2.521c-0.602-0.803-0.976-1.824-1.262-2.942
	C28.736,148.702,28.698,148.941,28.673,149.198z"/>
<path d="M92.133,103.389c1.552-1.458,2.08-0.004,3.362,0.841c-0.963,0.441-1.488,1.311-2.942,1.261
	C93.583,104.499,91.927,104.709,92.133,103.389z"/>
<path d="M71.96,218.961c-0.223,1.438-2.024,0.643-2.94,0.42c-0.854-1.908-0.37-4.787,0.42-6.304
	C70.695,214.195,69.9,217.684,71.96,218.961z"/>
<path fill="#FFFFFF" d="M99.697,124.402c0.571,0.836,1.446,2.631,0.42,3.783c-3.042-0.038-3.929-2.236-7.144-2.102
	C94.246,124.553,96.672,124.175,99.697,124.402z"/>
<path fill="#FFFFFF" d="M101.799,100.867c0.388-1.248,1.735-3.77,2.941-1.681C103.866,99.85,103.03,100.556,101.799,100.867z"/>
<path fill="#FFFFFF" d="M80.365,253.843c0.109,1.929,0.445,2.03,0,3.782c-1.307,0.513-2.664,0.979-4.623,0.841
	c-1.458-1.504-0.5-4.026,0-5.884C76.705,252.931,78.873,252.964,80.365,253.843z M79.105,256.364
	c0.294-1.454-1.477-1.509-2.103-0.84C76.709,256.978,78.479,257.033,79.105,256.364z"/>
<path fill="#FFFFFF" d="M103.9,182.818c0.706,3.337-3.552,7.649-6.726,6.724c-3.146-0.916-2.374-4.896-1.261-7.985
	C97.47,184.012,102.271,183.747,103.9,182.818z"/>
<path fill="#FFFFFF" d="M71.96,44.132c1.64,4.047,1.193,6.573,0.841,10.507c-2.215,0.664-3.563-0.752-6.304,0
	c0.172-1.013-0.769-0.912-0.42-2.102c-0.357,0.761-1.084,1.16-1.261,2.102c-2.114,0.294-2.93-0.715-5.043-0.42
	c-0.518-5.173,2.055-7.435,1.261-11.768c-4.749,0.013,0.198,4.926-1.681,7.145c-0.84,0-1.682,0-2.521,0
	c-1.042-3.513-1.303-4.337,0-7.564c1.294-0.294,0.808-0.294,2.103,0c0.218-2.434-1.514-4.375-1.262-7.985
	c0.235-0.139,0.542,0.702,0.42,0.841c4.015-4.657,2.519,2.328,3.782,4.623c0.312-1.109-0.038-4.215,1.261-5.463
	c-0.062-0.92-1.059-0.903-2.102-0.84c1.109-2.328-0.244-3.803,0-7.985c3.064,0.151,2.034,2.538,2.521,4.623
	c1.644-1.857,1.495-5.509,2.521-7.985c-1.202,0.479-1.126,2.236-2.521,2.521c-0.992-0.13-0.782-1.458-2.102-1.261
	c1.622-0.899,2.412-2.631,2.102-5.463c1.23-0.109,1.291,0.95,2.521,0.841c-0.739,1.147,0.513,1.677-0.84,2.521
	c0.496,0.765,2.188,0.332,2.941,0.84c1.235-0.584,0.131-1.454,1.682-2.101c-0.424-0.698-1.786-0.458-2.521-0.841
	c1.95-2.479,0.622-5.207,1.682-9.246c-0.82-0.441-1.678-0.845-2.522-1.261c0.555-0.988,1.172-1.912,0.841-3.782
	c1.824,0.424,1.875-0.929,2.521-1.681c3.127,4.035-0.088,8.548,1.261,12.608c-1.941,3.076,4.657,10.771-2.941,8.825
	c-1.243,2-1.219,2.682-1.261,5.884c0.518-0.471,0.861-0.366,0.841,0.42c1.029-0.046,0.089-1.391-0.42-1.261
	c1.766-0.757,1.16-3.883,3.782-3.783c1.282,1.24,1.393,3.652,1.261,6.304c-0.948,0.45-1.849,0.954-2.521,1.681
	c2.421,1.042,2.602,4.761,2.941,6.724c-0.458,1.223-1.715,1.647-2.941,2.101C69.565,44.006,71.334,43.498,71.96,44.132z
	 M66.917,46.233c0.144-1.118,1.561-0.962,1.682-2.102c-0.425-0.698-1.786-0.458-2.521-0.84
	C66.501,44.998,64.799,46.221,66.917,46.233z M69.02,35.727c-0.567-1.256-1.3-2.345-1.682-3.782
	c-1.051,1.471,0.467,5.51-1.261,6.304c1.181,0.004-1,1.147,0.841,0.841C67.145,38.509,67.362,36.076,69.02,35.727z"/>
<path fill="#FFFFFF" d="M116.088,141.633c-7.38-2.021-13.877,10.099-14.289,17.651c-0.15,2.803,1.483,6.489-1.261,7.565
	c0.546-1.938-0.173-2.879,0.841-4.623c-2.029-3.61,0.962-12.608,3.782-13.869c0.159-3.761,3.248-4.598,4.202-7.564
	C111.376,140.12,115.298,139.019,116.088,141.633z"/>
<path fill="#FFFFFF" d="M76.163,260.987c1.243,1.841,2.277,3.887,2.102,7.145c-2.286,0.034-4.95,0.013-7.984,0
	c-0.505-1.971-1.14-6.775,0.84-7.565C72.184,259.916,74.33,261.084,76.163,260.987z"/>
<path fill="#FFFFFF" d="M85.408,261.828c0.983,1.979,2.968,4.417,1.261,6.725c-4.749-0.139-7.014-3.114-6.724-7.145
	C80.924,260.95,83.761,261.618,85.408,261.828z"/>
<path fill="#FFFFFF" d="M92.975,162.646c1.42,0.189-0.896,4.484-2.522,2.942C91.069,164.386,92.591,164.083,92.975,162.646z"/>
<path fill="#FFFFFF" d="M98.856,295.449c-17.929-0.08-42.729,1.109-65.981-0.42c0.706-2.517,3.057-3.387,3.362-6.304
	c5.224-0.887,10.41-0.731,13.869-2.521c0.811,0.529,6.052,2.333,6.304,0c-0.718-1.488-0.845,1.37-1.681,0
	c-1.126-2.593,2.051-3.585,1.681-6.724c1.534-0.273,2.24,0.281,2.942,0.84c-0.689,1.412-2.114,2.089-2.942,3.362
	c-0.206,1.609,1.458,1.34,0.841,3.362c1.563-1.097,2.261-3.063,3.782-4.203c0.874,0.378,1.109,1.715,1.261,3.783
	c3.173-0.588,7.106,2.118,7.985,0c6.136,2.782,18.084-1.5,24.375,3.362c-9.452,0.109-23.577,0.034-33.621,1.261
	c7.998,0.723,17.761,2.198,26.477,2.102C91.306,293.306,96.28,291.457,98.856,295.449z M60.193,291.667
	c-1.147,0.307-0.845-0.836-1.682-0.84c0.304,1.143-1.983-0.303-1.681,0.84C58.344,291.73,59.517,292.885,60.193,291.667z"/>
<path fill="#FFFFFF" d="M11.442,80.274c-1.563,6.388,3.815,11.288,2.101,16.39c-7.445-1.609-8.535-11.683-5.883-16.81
	C9.19,79.724,10.396,79.921,11.442,80.274z"/>
<path fill="#FFFFFF" d="M46.744,72.29c0.122,1.941-0.874,2.765-2.101,3.362C46.534,74.248,44.567,72.945,46.744,72.29z"/>
<path d="M45.064,273.595c0.734,0.387,0.929,1.315,0.84,2.521C43.808,276.722,43.832,273.944,45.064,273.595z"/>
<path fill="#FFFFFF" d="M40.021,153.4c3.067,9.225-4.01,15.1-12.188,17.651c-3.102-1.665-4.039-5.489-4.623-9.666
	c2.484-2.455,6.796-5.207,9.246-6.304c0.399,4.921,0.277,6.771,1.261,10.086c3.174-6.485,0.454-17.907-5.463-22.274
	c4.767,1.538,8.283,4.325,9.666,9.246C37.961,153.219,39.486,152.816,40.021,153.4z"/>
<path d="M59.353,254.684c1.101-1.282,2.371,0.752,1.261,1.681C60.294,255.705,59.281,255.738,59.353,254.684z"/>
<path fill="#FFFFFF" d="M77.844,201.31c0.483,1.719,2.702,5.081-0.841,5.043c0.147-0.55,0.74-0.66,0.841-1.261
	c-1.518-0.458-3.833-1.836-5.464-0.84c0.005,0.836,1.147,0.534,0.842,1.681c0.971-0.332,1.392-0.353,3.361-0.42
	c-0.739,1.639-3.651,1.114-5.884,1.261c-0.929-1.03-1.109-2.812-1.261-4.623c-1.896,0.488-0.828,3.934-2.521,4.623
	c-3.076-0.513-4.151-0.639-7.564-0.42c-1.004-1.151-0.832-2.538-0.42-4.203c-1.063,1.177-1.824,2.661-2.522,4.203
	c-2.958,0.219-5.585-0.811-8.825-0.84c0.172-1.37,0.878-2.207,1.682-2.942c1.046-0.063,1.303,0.66,2.101,0.84
	c1.723-2.622,4.606-2.446,8.405-2.521c3.371-0.067,7.942-1.929,9.246,0.841C71.712,199.982,74.045,200.612,77.844,201.31z"/>
<path fill="#FFFFFF" d="M19.849,128.605c2.021,2.274,5.076,3.988,5.043,7.145c-1.454,2.61-7.372,0.752-9.246,2.942
	c-2.683-2.068-4.497-7.262-2.942-10.086C15.558,129.176,17.81,128.991,19.849,128.605z"/>
<path fill="#FFFFFF" d="M61.874,329.07c0.308,2.286-2.66,3.009-3.782,2.521c-2.593,1.758-4.673,3.258-6.304,5.043
	c1.361,3.773-5.136,5.77-6.724,2.102C49.225,334.037,54.478,326.771,61.874,329.07z"/>
<path d="M63.556,273.175c1.303,1.21,1.891,4.505-0.841,4.623c-0.336-1.576-1.323-2.971-0.42-4.623
	C62.714,273.175,63.135,273.175,63.556,273.175z"/>
<path d="M58.512,81.535c-0.424,1.118-0.688,2.392-2.102,2.521c0.051-1.21-0.231-2.752,0.42-3.362
	C57.979,80.388,57.675,81.531,58.512,81.535z"/>
<path d="M97.176,111.374c-0.059,1.765-0.765,2.875-1.681,3.782c-1.35,0.37-0.87-1.088-1.682-1.261
	C94.818,112.941,95.499,111.66,97.176,111.374z"/>
<path d="M92.975,79.014c-2.011,0.328-2.484-0.878-2.522-2.521c1.488-0.735,1.034,0.282,2.522,0.42
	C92.188,77.711,92.927,77.967,92.975,79.014z"/>
<path fill="#FFFFFF" d="M57.251,137.851c-1.639,0.471-4.379,2.046-5.043,2.101c-0.882-1.404,2.039-1.992,2.522-3.362
	c-0.567-1.979-2.782-2.522-5.043-1.681c0.353,1.757-0.815,1.983-0.84,3.362c1.265,1.597,1.562,1.189,2.941,1.261
	c0.118,0.681-0.398,0.723-0.42,1.261c1.765-0.584,1.354,1.013,2.66,0.887c-5.035,0.782-8.544-3.371-11.906-5.51
	c-0.223-1.988,2.378-1.147,3.362-0.841c0.44-1.66,1.496-2.706,2.102-4.202C53.226,130.218,55.937,133.341,57.251,137.851z"/>
<path fill="#FFFFFF" d="M92.133,275.696c0.976,0.904,2.248,2.358,0.842,3.362c-0.351-1.16-1.389-3.026-0.842-3.782
	C92.607,275.356,92.364,275.696,92.133,275.696z"/>
<path fill="#FFFFFF" d="M90.451,194.166c-3.529,0.168-4.879-1.845-7.564-2.521c-2.055,2.009-3.146,4.976-6.724,5.463
	c-6.031-3.358-8.805-9.969-13.449-14.709c-2.429-0.189-2.097,2.387-4.203,2.521c-1.785-3.724,1.758-8.952,6.305-7.565
	c4.174,4.934,7.006,11.208,12.188,15.129c1.248-1.059,2.341-3.328,4.623-2.101c0.425-1.938-2.37-3.993-2.521-6.724
	c-3.257-0.736-2.888,2.156-4.623,2.942c-3.501-1.32-1.841-5.93,1.261-6.304C83.374,181.07,86.295,188.681,90.451,194.166z"/>
<path fill="#FFFFFF" d="M63.976,363.53c1.029,3.119,0,10.104,0,15.551c0,81.053-0.651,164.482-0.42,244.174
	c-9.649-42.885-14.398-88.438-21.014-133.645c-6.594-45.057-13.301-90.467-19.752-134.904c6.01-5.337,15.003-9.936,21.434-13.449
	c0.958,0.189,2.123,2.324,2.941,1.262c2.719,5.988,6.005,9.578,10.506,14.709C59.424,359.224,63.458,361.964,63.976,363.53z"/>
<path fill="#FFFFFF" d="M89.611,263.509c1.908,0.235,3.976,4.228,0.84,4.623C89.401,266.425,90.095,265.505,89.611,263.509z"/>
<path fill="#FFFFFF" d="M14.384,103.809c-3.425,1.458-6.521-1.038-10.086-0.84c-2.307-4.337-2.731-8.284-1.681-13.449
	c1.366-0.244,1.954,0.286,2.942,0.42C5.186,97.879,13.065,97.564,14.384,103.809z"/>
<path fill="#FFFFFF" d="M57.251,50.436c0.235,1.53,1.018,2.509,0.42,3.782c-1.188-0.349-1.088,0.592-2.101,0.42
	c-1.08-1.307,0.265-3.127-0.42-4.203C55.853,50.436,56.549,50.436,57.251,50.436z"/>
<path fill="#FFFFFF" d="M21.528,88.68c2.577,1.067,3.53,3.753,5.464,5.463c-0.971,4.22-2.27,9.38-6.725,8.826
	C13.775,102.158,17.17,90.953,21.528,88.68z"/>
<path fill="#FFFFFF" d="M65.656,308.897c0,1.261,0,2.521,0,3.782c-2.719-0.223-2.471-3.413-5.043-3.782
	c-1.639,2.248,2.929,7.308-0.42,10.506c-7.195-1.03-12.373,2.438-14.709,8.405c-1.609,0.353-3.375,0.55-5.463,0.42
	c-5.358-3.169-0.724-12.68,5.043-14.709c-3.11-4.24-0.224-10.704,0-13.448c3.441-1.925,10.606,2.5,12.188,3.782
	c1.35,1.172,3.862,1.181,3.782,3.782C62.538,308.095,64.446,308.145,65.656,308.897z"/>
<path d="M53.89,274.016c0.163,1.706-0.155,2.929-1.682,2.942c-0.853-1.181-0.752-1.723-0.42-3.362
	C52.978,273.247,52.876,274.188,53.89,274.016z"/>
<path fill="#FFFFFF" d="M70.279,271.494c10.195-4.619,10.162,4.224,5.043,10.507C71.783,281.74,68.754,277.054,70.279,271.494z
	 M75.742,277.798c-0.164-2.24,0.711-2.925-0.42-4.203c-0.559,0-1.122,0-1.682,0c-0.071,1.189-0.77,1.752-0.841,2.942
	c0.949,0.311,0.92,1.601,2.103,1.681C74.994,277.89,75.255,277.73,75.742,277.798z"/>
<path fill="#FFFFFF" d="M90.031,337.896c-0.248,0.875-0.807,1.434-1.681,1.682c-2.791-2.954-4.599-6.889-8.826-8.405
	c-1.567-0.054-2.752,1.66-3.782,0.841c-1.773-3.955,4.039-4.98,5.884-4.623C86.249,328.284,85.816,337.349,90.031,337.896z"/>
<path fill="#FFFFFF" d="M125.754,83.216c0.996,2.647-0.062,5.077-1.261,6.724c-1.804,0.122-2.778-0.584-3.782-1.261
	c0-1.261,0-2.521,0-3.782C122.362,84.305,123.631,83.334,125.754,83.216z"/>
</svg>
